<?xml version="1.0" encoding="UTF-8"?>
<!-- Created with Grafika (https://www.grafika.cc/) -->
<svg xmlns="http://www.w3.org/2000/svg" xmlns:svg="http://www.w3.org/2000/svg" xmlns:xlink="http://www.w3.org/1999/xlink" width="2048" height="2047.97" viewBox="0 0 960 960" preserveAspectRatio="xMidYMid meet">
	<defs>
		<clipPath id="mask_1">
			<rect x="-480" y="-480" width="960" height="960" />
		</clipPath>
		<radialGradient gradientUnits="userSpaceOnUse" gradientTransform="matrix(269.81182861328125, -2.245079755783081, 1.5074312686920166, 181.16183471679688, 397.4692077636719, 358.0521240234375)" spreadMethod="pad" id="gradient_1" cx="0" cy="0" r="1">
			<stop offset="0.72%" stop-color="#595a5c" stop-opacity="1" />
			<stop offset="100%" stop-color="#362f24" stop-opacity="1" />
		</radialGradient>
		<radialGradient gradientUnits="userSpaceOnUse" gradientTransform="matrix(269.81182861328125, -2.245079755783081, 1.5074312686920166, 181.16183471679688, 397.4692077636719, 358.0521240234375)" spreadMethod="pad" id="gradient_2" cx="0" cy="0" r="1">
			<stop offset="0.72%" stop-color="#595a5c" stop-opacity="1" />
			<stop offset="100%" stop-color="#362f24" stop-opacity="1" />
		</radialGradient>
		<radialGradient gradientUnits="userSpaceOnUse" gradientTransform="matrix(269.81182861328125, -2.2450783252716064, 1.5074301958084106, 181.16183471679688, 396.9197998046875, 359.8598937988281)" spreadMethod="pad" id="gradient_3" cx="0" cy="0" r="1">
			<stop offset="0.72%" stop-color="#595a5c" stop-opacity="1" />
			<stop offset="100%" stop-color="#362f24" stop-opacity="1" />
		</radialGradient>
		<radialGradient gradientUnits="userSpaceOnUse" gradientTransform="matrix(269.81182861328125, -2.2450788021087646, 1.5074306726455688, 181.16183471679688, 402.3876647949219, 366.769775390625)" spreadMethod="pad" id="gradient_4" cx="0" cy="0" r="1">
			<stop offset="0.72%" stop-color="#595a5c" stop-opacity="1" />
			<stop offset="100%" stop-color="#362f24" stop-opacity="1" />
		</radialGradient>
	</defs>
	<g transform="matrix(1, 0, 0, 1, 5.0167236328125, 0.6826171875)">
		<g transform="matrix(1, 0, 0, 1, 474.9832763671875, 479.3173828125)" clip-path="url(#mask_1)">
			<g transform="matrix(1.1891874074935913, 0.003298303810879588, -0.003298303810879588, 1.1891874074935913, -591.849853515625, -665.3179931640625)">
				<g transform="matrix(0.9873790144920349, 0.15837399661540985, -0.15837399661540985, 0.9873790144920349, 79.99166107177734, -117.285888671875)">
					<path d="M820.23,511.27 C814.27,500.4 801.01,478.39 783.97,464.24 C794.71,459.92 796.68,442.49 798.45,430.62 C800.67,415.73 798.72,392.67 795.64,375.49 C792.68,358.93 781.1,343.34 779.99,327.5 C778.88,311.67 780.62,285.45 788.98,280.49 C797.35,275.53 820.72,286.26 830.19,297.75 C842.83,313.1 861.2,345.32 864.83,372.57 C868.59,400.7 860.15,443.99 852.72,466.54 C847.23,483.19 821.45,490.4 820.21,507.89 C820.13,508.98 820.14,510.11 820.23,511.27 L820.23,511.27 Z" fill-rule="evenodd" style="fill:url(#gradient_1);" />
					<path d="M781.92,471.7 C788.97,459.17 803.08,434.09 802.68,413.49 C802.22,390.36 794.06,363.15 779.18,332.9 C769.73,313.69 775.94,291.55 781.91,282.28 C787.89,273.01 804.72,273.15 815.01,277.27 C825.31,281.4 835.94,295.63 843.67,307.03 C851.66,318.8 859.51,333.24 862.95,347.91 C867.31,366.55 872.57,397.55 869.85,418.88 C867.26,439.24 853.38,462.17 846.66,475.9 C842.17,485.08 833.73,495.89 829.51,501.3M829.51,501.3 C813.65,491.44 797.78,481.57 781.92,471.7" fill-rule="evenodd" style="fill:url(#gradient_2);stroke:#000000;stroke-linecap:round;stroke-linejoin:round;stroke-width:21.02;" />
				</g>
				<path d="M238.78,642.2 C252.32,662.25 279.41,702.37 298.96,722.2 C315.15,738.62 339.21,754.22 356.1,761.19 C369.75,766.81 390.12,764.92 400.31,763.98M445.59,705.19 C436.42,720.09 418.08,749.88 405.08,768.67 C393.35,785.64 373.53,801.56 367.62,817.92 C362.07,833.26 363.46,855.31 369.6,866.83 C375.75,878.36 391.17,885.24 404.49,887.06 C418.97,889.05 442.14,888.84 456.5,878.74 C470.88,868.62 478.88,843.5 490.78,826.36 C504.55,806.52 527.62,775.28 539.15,759.66 C548.43,754.73 569.5,748.83 601.01,742.26 C603.23,746.18 617.61,763.29 631.79,771.77 C647.25,781.02 678.51,792.13 697.11,803.63 C713.93,814.04 731.14,826.47 743.4,840.77 C755.49,854.9 757.94,882.22 770.63,889.48 C783.31,896.74 807.74,892.85 819.51,884.34 C831.27,875.82 840.68,855.32 841.22,838.38 C841.84,818.64 828.1,786.8 823.26,765.92 C819.19,748.4 812.17,713.11 812.17,713.11 C812.22,711.68 817.74,698.68 828.79,672.01 C842.06,639.97 849.19,598.88 845.29,569.27 C841.6,541.22 826.75,512.91 805.38,494.37 C782.86,474.82 743.15,459.98 710.18,452.01 C677.21,444.04 632.28,446.34 607.56,446.55 C592.16,446.68 566.05,447.67 555.95,449.86 C361.44,480.96 277.6,478.4 277.37,478.45 C265.65,501.87 230.31,563.87 228.49,598.08 C226.67,632.3 245.91,667.92 254.58,698.89 C262.57,727.43 272.97,758.98 280.54,783.91 C287.07,805.42 296.46,831.93 300.01,848.47 C302.45,859.8 295.91,873.25 301.88,883.18 C308.02,893.39 322.41,907.7 336.82,909.73 C351.23,911.76 391.1,892.38 403.47,886.92M598.27,744.17 C604.61,755.33 616.49,783.21 621.56,801.6 C626.98,821.28 620.66,852.12 630,867.82 C639.33,883.53 662.84,895.18 677.57,895.84 C692.31,896.51 708.76,881.9 718.4,871.82 C727.68,862.14 732.87,844.3 735.46,835.38" style="fill:url(#gradient_3);stroke:#000000;stroke-linecap:round;stroke-linejoin:round;stroke-width:21.02;" />
				<path d="M831.24,487.57 L831.17,487.69 Q831.09,487.81 825.7,482.92 Q820.31,478.03 816.32,473.2 Q812.32,468.37 810.7,462.26 Q809.07,456.15 809.99,450.16 Q810.91,444.17 817.18,443.65 Q823.45,443.12 828.67,448.25 L833.9,453.37 L838.25,457.85 Q842.61,462.33 848.86,462.32 Q855.12,462.31 857.2,455.78 Q859.28,449.25 861.83,443.64 Q864.37,438.03 861.55,432.23 Q858.73,426.44 852.28,423.76 Q845.84,421.09 840.86,416.56 L835.88,412.02 L831.22,408.02 Q826.55,404.01 823.71,398.28 Q820.87,392.54 822.71,385.83 Q824.55,379.12 828.98,374.13 Q833.41,369.14 839.4,373.3 Q845.38,377.46 852.04,379.45 Q858.69,381.44 863.37,385.17 L868.05,388.91 L873.01,392.59 Q877.96,396.28 880.72,390.12 Q883.47,383.96 881.46,377.51 L879.45,371.06 L875.08,359.55 L872.1,352.35 Q869.11,345.14 864.31,340.84 Q859.5,336.53 853.67,335.29 Q847.84,334.05 842.77,338.47 Q837.7,342.89 831.22,341.23 Q824.74,339.57 820.03,334.84 Q815.33,330.11 813,324.02 Q810.68,317.94 812.16,312.12 Q813.64,306.31 816.57,300.87 Q819.49,295.44 825.65,294.62 Q831.81,293.79 837.89,296.38 Q843.97,298.96 849.35,302.45 Q854.73,305.93 859.42,310.83 Q864.11,315.73 868.24,321.83 Q872.36,327.94 873.43,334.03 Q874.5,340.13 876.49,346.17 Q878.48,352.22 881.88,358.64 Q885.28,365.07 884.94,371.33 L884.6,377.59 L884.81,383.68 Q885.03,389.77 884.16,396.26 Q883.29,402.75 881.46,408.92 Q879.64,415.08 876.9,421.8 Q874.17,428.52 870.15,434.42 L866.12,440.31 L857.73,451.57 L850.54,461.38 L842.39,472.42 L839.07,477.48 Q835.74,482.53 831.82,487.66 L821.14,493.84M702.5,804.41 L702.02,804.53 Q701.55,804.65 704.98,800.51 Q708.41,796.37 710.83,791.09 Q713.25,785.81 715.88,778.25 L718.51,770.69 L720.36,765.41 Q722.22,760.14 726.59,754.91 Q730.97,749.67 735.33,745.67 Q739.7,741.66 745.53,739.4 Q751.36,737.13 757.01,741.53 Q762.65,745.93 765.03,751.04 Q767.4,756.15 765.45,762.19 Q763.51,768.22 760.8,773.2 Q758.1,778.17 753.88,784.34 L749.67,790.51 L741.89,801.4 L738.25,806.81 Q734.61,812.21 732.1,816.86 Q729.58,821.51 723.25,821.23 Q716.92,820.94 712.28,817.43 L702.13,806.58M746.55,843.18 L746.41,843.15 Q746.26,843.13 751.68,837.72 Q757.1,832.32 763.27,825.16 Q769.44,818.01 777.46,811.17 Q785.49,804.34 791.51,801.48 Q797.53,798.62 803.75,802.11 Q809.97,805.61 813.15,809.97 Q816.33,814.34 815.1,820.12 Q813.87,825.89 811.71,830.51 L809.54,835.13 L802.77,848.87 L800.46,853.52 Q798.16,858.17 793.29,862.23 Q788.43,866.29 782.81,870.23 Q777.2,874.17 772.5,876.23 Q767.8,878.3 764.76,873.45 Q761.71,868.6 759.18,863.32 Q756.65,858.05 752.92,853.09 L744.22,842.5M809.68,723.97 L808.77,724.53 Q807.86,725.08 803.22,729.6 Q798.59,734.12 793.74,740.7 L788.9,747.27 L784.77,752.93 Q780.65,758.58 777.86,765.45 Q775.07,772.31 779.42,779.03 Q783.76,785.76 790.64,784.59 Q797.52,783.43 803,778.45 Q808.49,773.48 813.84,769.87 Q819.19,766.26 817.6,759.53 Q816.02,752.8 815.27,745.72 L814.52,738.64 L813.76,731.99 L814.13,718.54M627.54,820.76 L627.72,820.58 Q627.9,820.39 633.32,816.52 Q638.74,812.64 646.58,811.95 Q654.43,811.26 661.38,811.12 Q668.33,810.97 673.24,814.61 Q678.15,818.25 675.33,824.74 Q672.5,831.23 666.71,836.19 Q660.92,841.15 655.07,842.92 L649.22,844.7 L642.49,846.71 Q635.77,848.72 630.06,850.8 Q624.35,852.88 626.13,846.15 Q627.9,839.42 627.44,832.9 L626.98,826.37 L626.55,820.07 L626.3,813.71M705.93,886.8 L705.3,886.93 Q704.66,887.05 698.59,883.42 Q692.51,879.79 688.74,873.13 Q684.98,866.46 684.91,860.39 Q684.84,854.31 685.79,847.62 Q686.73,840.93 692.46,838.87 Q698.18,836.81 702.52,842.97 Q706.86,849.13 711.02,853.53 Q715.18,857.94 714.99,864.3 Q714.8,870.67 708.52,875.73 L689.38,889.79M446.38,881.08 L446.49,880.91 Q446.59,880.75 447.25,874.56 Q447.91,868.37 446.28,861.86 Q444.65,855.34 441.28,849.22 Q437.91,843.09 435.99,837.43 Q434.06,831.76 432.77,825.62 Q431.47,819.48 431.08,812.62 Q430.69,805.76 433.39,798.76 Q436.09,791.75 442,794.02 Q447.92,796.29 449.29,803.37 Q450.67,810.45 454.02,816.07 Q457.37,821.69 459.93,827.37 Q462.5,833.04 463.92,840.17 Q465.34,847.29 469.52,852.01 Q473.69,856.74 471.48,862.28 Q469.27,867.83 463.02,870.67 L447.66,874.37M380.97,805.36 L380.92,805.81 Q380.88,806.27 381.74,812.47 L382.59,818.68 L385.98,836.13 L387.42,841.95 Q388.86,847.77 391.7,854.98 Q394.53,862.18 399.02,866.8 Q403.51,871.41 409.76,868.37 Q416.01,865.34 415.65,859.14 Q415.3,852.95 413.25,847.16 L411.2,841.38 L409.24,834.52 Q407.27,827.65 404.21,820.47 Q401.15,813.28 400.01,807.4 Q398.87,801.51 398.96,795.39 Q399.04,789.27 393.93,792.55 Q388.82,795.84 386.46,801.39 L379.63,812.64M432.21,729.6 L431.97,729.79 Q431.73,729.97 432.69,735.89 Q433.65,741.8 435.92,748.63 Q438.18,755.46 441.37,761.9 Q444.56,768.35 450.63,766.95 Q456.69,765.55 458.2,758.72 Q459.7,751.89 458.29,744.11 Q456.87,736.34 453.61,730.44 Q450.35,724.54 448.44,718.7 Q446.53,712.85 440.73,715.31 Q434.93,717.76 431.66,723.09 L425.38,734.93M344.23,757.09 L344.04,756.47 Q343.86,755.85 347.69,749.68 Q351.51,743.52 356.02,737.27 Q360.53,731.02 363.45,725.19 L366.37,719.36 L372.79,704.46 L377.9,691.85 L381.09,685.2 Q384.27,678.55 388.75,672.65 Q393.24,666.75 399.25,667.17 Q405.27,667.59 408.27,673.23 Q411.28,678.87 411.18,685.19 Q411.08,691.51 409.76,697.57 Q408.45,703.62 406.38,709.62 Q404.31,715.63 404.64,722.21 Q404.96,728.8 406.53,735.27 Q408.1,741.74 406.74,747.97 Q405.39,754.19 399.32,756.77 Q393.25,759.35 387.07,759.34 Q380.89,759.33 373.9,757.24 Q366.91,755.15 360.57,753.68 L351.64,751.73M272.37,678.51 L272.45,679.03 Q272.53,679.54 277.68,683.23 Q282.83,686.91 288.61,688.83 Q294.38,690.75 300.93,689.4 Q307.48,688.04 313.32,685.34 Q319.16,682.64 324.74,679.56 Q330.32,676.49 335.73,679.76 Q341.13,683.03 339.73,689.35 Q338.33,695.66 334.81,700.8 L331.29,705.93 L327.13,711.74 Q322.96,717.54 318.71,721.88 Q314.46,726.22 309.78,722.32 Q305.09,718.42 298.69,715.5 Q292.29,712.59 286.19,707.7 Q280.09,702.81 277.43,696.8 L274.77,690.8 L272.38,684.91 L268.59,676.3M296.16,827.79 L296.45,828.17 Q296.74,828.54 303.68,827.09 Q310.62,825.64 317.6,824.51 Q324.57,823.37 331.31,822.95 Q338.05,822.53 345.18,821.84 Q352.31,821.14 355.33,827.19 Q358.35,833.24 355.87,838.79 Q353.38,844.34 349.28,848.94 Q345.19,853.53 339.54,857.32 Q333.89,861.11 327.85,863.59 Q321.81,866.06 315.75,868.23 Q309.69,870.4 305.13,866.5 Q300.57,862.6 300.27,855.68 L299.97,848.76 L298.98,835.46 L298.93,829.34 L297.83,825.29M280.29,763.23 L280.2,763.37 Q280.11,763.5 285.84,767.38 Q291.56,771.26 297.55,771.81 Q303.54,772.37 309.86,771.74 Q316.17,771.11 322.58,769.48 Q328.99,767.85 333.86,772.16 Q338.73,776.47 335.8,782.13 Q332.88,787.79 326.24,789.47 Q319.61,791.14 313.22,795.14 Q306.83,799.13 302.3,803.1 Q297.77,807.08 293.78,802.22 Q289.78,797.36 287.65,790.94 L285.52,784.52 L282.54,772.42 L281.52,766.29 L282.21,754.21M328.21,899.97 L328.11,899.49 Q328.02,899.01 329.19,892.36 Q330.36,885.71 334.8,881.22 Q339.23,876.73 344.42,872.13 Q349.61,867.52 355.72,866.25 Q361.83,864.97 364.3,870.92 Q366.77,876.87 364.24,883.24 L361.7,889.6 L359.13,896.38 Q356.57,903.16 351.77,907.31 Q346.97,911.45 340.68,909.55 Q334.39,907.65 328.58,904.29 L323.44,895.35M641.6,773.38 L641.48,773.37 Q641.36,773.35 645.78,770.97 L650.2,768.6 L653.97,766.53 Q657.73,764.46 661.46,762.16 Q665.18,759.86 669.74,756.68 Q674.29,753.51 677.45,749.84 Q680.62,746.17 683.35,741.89 Q686.07,737.6 688.29,733.37 L690.51,729.13 L692.55,725.38 Q694.58,721.62 698.04,723.93 Q701.5,726.23 700.48,730.39 Q699.46,734.54 697.96,738.44 Q696.46,742.33 694.54,745.94 Q692.62,749.55 691.27,754.3 Q689.92,759.06 689.42,763.33 Q688.92,767.6 688.87,771.99 L686.08,797.51 L641.6,773.38 ZM595.41,742.23 L597.7,737.97 Q600,733.71 602.76,729.78 Q605.51,725.84 606.75,721.97 Q607.98,718.1 610.71,714.71 Q613.44,711.32 617.72,713.66 Q622,716 620.3,720.27 Q618.61,724.55 616.6,728.22 L614.59,731.89 L612.35,736.35 Q610.12,740.82 608.48,745.68 L606.84,750.55 L603.81,758.18 C603.2,761.37 593.97,745 595.41,742.23 ZM611.17,667.53 L611.06,667.58 Q610.94,667.64 608.09,671.71 Q605.24,675.79 602.29,679.45 L599.34,683.11 L596.81,686.26 Q594.29,689.4 593.62,694.04 Q592.95,698.67 593.59,703.09 Q594.24,707.51 598.15,708.55 Q602.06,709.59 604.99,706.57 L607.92,703.54 L611.1,700.45 Q614.28,697.37 617.37,694.02 L620.45,690.68 L623.42,687.52 Q626.38,684.36 628.62,680.96 Q630.85,677.57 632.19,673.63 Q633.53,669.7 633.82,665.62 Q634.12,661.54 632.04,657.97 Q629.96,654.39 627.09,651.17 Q624.21,647.95 621.4,651.3 Q618.58,654.65 616.57,658.51 L614.57,662.36 L612.5,665.94 L608.44,674.64M654.78,694.08 Q651.72,696.73 650.18,700.61 Q648.65,704.49 646.46,708.14 L644.26,711.78 L641.97,715.38 Q639.67,718.99 637.88,722.94 Q636.1,726.9 633.34,729.95 Q630.58,733.01 628.24,736.35 Q625.9,739.68 626.45,743.91 Q626.99,748.13 630.25,751.13 Q633.52,754.12 637.57,752.85 Q641.63,751.57 645.91,748.47 Q650.2,745.36 653.85,741.81 Q657.51,738.25 660.62,735.56 Q663.73,732.88 667.01,730.49 Q670.29,728.11 673.57,725.48 Q676.86,722.85 678.07,718.8 Q679.29,714.74 678.19,710.29 L677.09,705.83 L676,701.6 Q674.91,697.37 672.72,693.23 Q670.54,689.09 666.57,688.3 L654.78,694.08 ZM650.18,586 L650.06,586.03 Q649.93,586.05 647.49,589.77 Q645.04,593.5 643.77,598.2 L642.5,602.9 L641.7,607.14 Q640.91,611.37 640.65,616.37 L640.4,621.37 L640.13,625.47 Q639.85,629.57 641.7,634.12 Q643.55,638.67 646.22,642.22 L648.9,645.77 L651.45,649.15 Q654.01,652.53 654.66,656.84 Q655.31,661.14 658.41,657.51 Q661.52,653.88 661.53,648.9 L661.54,643.91 L661.2,635.04 L661.47,625.93 L661.35,621.4 Q661.23,616.88 660.52,612.33 Q659.8,607.78 660.01,603.46 L660.22,599.15 L660.81,595.12 Q661.41,591.09 659.5,587.53 L650.18,586 ZM721.2,667.05 C721.01,667.06 719.36,667.54 716.84,668.44 Q713.06,669.8 711.8,673.89 Q710.53,677.99 709.66,682.86 Q708.79,687.73 706.84,692.37 L704.89,697 L703.29,701.17 Q701.69,705.34 701.33,709.69 Q700.98,714.03 704.92,711.37 Q708.86,708.7 711.56,704.77 Q714.25,700.83 717.3,697.92 Q720.34,695.01 723.04,691.96 Q725.73,688.9 727.88,685.32 Q730.04,681.74 730.31,676.94 Q730.57,672.15 729.66,667.96 Q728.74,663.77 724.75,663.97 L721.2,667.05 ZM679.41,601.75 Q677.87,605.81 677.18,610.29 Q676.5,614.77 677.66,620.38 Q678.82,626 681.92,629.44 L685.01,632.87 L688.15,636.24 Q691.29,639.6 692.25,644.03 L693.22,648.45 L694.07,653.11 Q694.92,657.77 698.56,659.67 Q702.2,661.58 704.55,657.74 Q706.91,653.91 708.02,649.81 Q709.13,645.71 709.24,641.35 Q709.34,636.98 708.88,632.72 L708.42,628.45 L707.76,619.28 L707.07,614.79 Q706.39,610.29 703.45,606.34 Q700.51,602.4 698.22,598.81 C695.17,594.01 683.27,591.62 679.41,601.75 ZM719.44,583.44 Q716.4,586.33 716.66,590.73 Q716.92,595.14 719.17,599.28 Q721.41,603.43 724.36,606.82 Q727.31,610.2 729.77,614.04 Q732.22,617.88 734.05,621.61 Q735.87,625.33 738.83,629.51 L741.8,633.7 L744.11,637.28 Q746.42,640.87 748.07,644.82 Q749.73,648.77 749.37,653.55 Q749.01,658.34 750.09,662.57 Q751.17,666.8 754.79,669.29 Q758.42,671.77 760.92,667.93 Q763.43,664.09 764.86,659.78 Q766.29,655.47 765.71,651.06 Q765.13,646.65 763.88,642.06 Q762.64,637.48 762.87,633.27 L763.1,629.06 L763.23,625.01 Q763.36,620.96 759.81,617.98 Q756.26,615 754.67,610.42 L753.08,605.83 L751.93,601.32 Q750.79,596.8 749.14,592.94 Q747.49,589.09 745.1,585.69 Q742.72,582.28 739.2,579.89 Q735.68,577.49 731.58,578.12 L723.51,581.95 L719.44,583.44 ZM785.14,612.14 L785.03,612.11 Q784.91,612.08 781.35,613.97 Q777.8,615.87 777.73,620.77 Q777.67,625.68 778.9,629.77 Q780.12,633.87 782.87,637.02 Q785.62,640.17 785.28,644.32 L784.95,648.47 L784.78,652.67 Q784.61,656.87 783.78,660.95 L782.96,665.04 L781.97,674.24 L781.67,678.59 Q781.37,682.93 782.24,687.07 Q783.11,691.21 787.42,689.54 Q791.73,687.86 795.19,685.1 Q798.65,682.33 799.33,678.13 Q800.01,673.93 800.27,669.19 L800.52,664.46 L801.59,654.87 L802.37,650.29 Q803.15,645.72 803.16,641.43 Q803.16,637.14 802.56,632.97 Q801.95,628.79 800.2,624.95 Q798.44,621.1 797.06,616.87 Q795.67,612.65 791.35,613.08 L785.14,612.14 ZM830.29,549.38 L829.95,549.72 Q829.62,550.06 827.08,546.91 Q824.55,543.76 821.17,547.28 Q817.79,550.8 817.3,555.36 Q816.82,559.92 817.72,564.54 L818.61,569.16 L819.32,573.41 Q820.02,577.67 820.13,581.71 L820.25,585.76 L820.09,590.08 Q819.93,594.4 819.36,598.41 L818.79,602.42 L818.03,612.03 L816.63,621.26 L815.67,626.26 Q814.71,631.27 817.7,634.22 Q820.7,637.18 822.11,641.06 Q823.53,644.94 825.12,640.7 L826.71,636.47 L830.17,626.78 L833.57,618.5 L835.64,614.27 Q837.71,610.04 838.57,605.45 L839.42,600.85 L840.23,592.23 L840.83,587.66 Q841.42,583.1 841.34,578.87 L841.25,574.65 L841.51,570.26 Q841.77,565.88 840.21,561.59 Q838.65,557.3 836.8,553.48 L827.43,546.07M660.54,453.22 L660.5,453.13 Q660.46,453.04 660.72,457.83 Q660.97,462.62 659.77,467.64 Q658.58,472.66 656.69,477.33 L654.8,482.01 L652.7,486.34 Q650.61,490.67 650.87,494.68 Q651.12,498.7 654.69,496.64 Q658.25,494.58 660.93,490.55 Q663.6,486.52 666.4,483.55 Q669.19,480.59 672.46,478.19 Q675.73,475.79 678.71,472.79 Q681.69,469.79 685.27,467.61 Q688.85,465.43 688.16,461.47 L682,454.28M742.77,506.25 L741.4,510.67 Q740.02,515.1 741.12,519.1 Q742.22,523.11 744.53,527.33 L746.84,531.56 L751.08,540.96 L753.94,548.85 L755.48,553.49 Q757.02,558.14 756.04,563.08 Q755.05,568.01 753.88,571.93 Q752.71,575.85 753.25,580.29 Q753.79,584.73 755.67,588.3 Q757.55,591.88 762.42,591.57 Q767.3,591.27 771.31,591.57 Q775.32,591.87 779.51,590.81 Q783.71,589.75 785.45,585.14 Q787.2,580.53 788.01,576.58 Q788.82,572.62 790.28,568.74 Q791.74,564.85 792.35,560.51 Q792.96,556.17 792.02,551.93 Q791.07,547.69 789,544.25 Q786.93,540.82 785.39,537.01 Q783.84,533.2 784.22,528.69 Q784.6,524.18 782.57,519.7 Q780.53,515.23 777.69,512.03 Q774.85,508.84 771.45,506.09 Q768.05,503.34 763.89,502.1 Q759.73,500.87 755.23,499.64 C748.03,500.98 743.88,503.19 742.77,506.25 ZM674.2,494.47 L673.83,494.44 Q673.47,494.41 670.18,498.76 Q666.89,503.11 665.37,508.5 Q663.85,513.89 663.98,518.64 Q664.11,523.39 665.76,528.4 Q667.4,533.4 669.5,537.35 Q671.61,541.3 671.35,546.47 Q671.08,551.64 670.04,557.48 L668.99,563.32 L667.95,568.54 Q666.91,573.75 670.55,576.1 Q674.19,578.46 676.81,575.22 L679.43,571.98 L682.3,568.76 Q685.16,565.54 689.51,564.67 Q693.85,563.8 698.53,562.07 Q703.2,560.34 706,556.68 Q708.8,553.03 710.1,549.02 L711.39,545.01 L712.66,541.06 Q713.92,537.12 713.88,532.64 Q713.83,528.17 713.19,524.17 Q712.54,520.16 711.02,516.21 Q709.5,512.25 706.54,509.28 L703.58,506.3 L700.55,503.02 Q697.52,499.75 694.96,496.37 Q692.39,493 688.18,492.32 Q683.98,491.65 680.02,492.46 L675.64,493.79M601.95,461.88 C601.19,462.02 584.72,453.76 578.62,459.98 C579.05,462.72 595.47,498.7 595.94,501.99 L599.45,542.26 C599.93,547.14 594.15,573.21 590.93,585.87 L589.27,593.85 C579.64,616.26 593.65,622.75 604.94,605.67 L606.34,601.7 C609.72,593.63 617.19,572.86 619.18,566.49 C620.79,561.48 622.75,553.58 623.33,550.87 C623.75,548.26 614.98,511.21 615.26,505.94 L615.47,501.99 C615.6,487.94 616.16,465.31 614.3,463.71 C611.29,461.12 604.92,459.81 600.74,459.8 L601.95,461.88 ZM536.36,473.65 C536.37,474.65 534.9,489.4 537.32,495.61 C538.52,498.71 547.14,522.29 547.82,523.84 C549.43,527.53 545.48,539.15 545.52,542.49 C542.87,544.32 548.15,561.02 552.49,563.84 C553.18,569.38 556.43,581.05 557.39,583.98 C561.21,595.68 579.36,581.04 575.82,554.41 C575.38,551.09 576.8,517.18 576.65,513.69 L576.43,508.44 C574.64,482.6 564.41,458.86 547.37,460.29 C542.09,460.74 538.82,474.75 536.36,473.65 ZM491.99,828.67 C483.38,831.86 474.26,791.68 473.95,788.24 L473.49,783.09 C472.71,776.71 470.05,754.75 472.8,754.07 C479.01,752.53 493.97,774.55 496.74,779.88 C501.62,789.25 516.92,786.08 527.79,779.43 C535.36,774.8 525.86,757.38 521.23,752.13 L517.84,748.55 C508.81,739 511.41,716.03 520.34,724.79 C522.58,726.98 534.4,741.9 535.47,743.18 C537.32,745.53 542.56,750.58 545.66,751.29 C553.03,752.96 565.7,731.17 567.98,725.45 C572.03,715.24 560.62,702.11 548.88,695.11 C542.53,691.32 473.61,686.3 466.24,678.16 C459.4,663.41 504.28,648.31 509.51,650 C523.08,654.37 568.78,676.3 572.96,676.43 C585.5,676.81 579.91,699.1 574.09,709.68 C572.97,711.73 568.61,724.59 567.58,727.49 C566.55,730.39 562.97,737.54 561.44,740.39 L559.16,745.1 C557.26,749.02 536.64,769.32 531.78,774.2M242.57,647.59 Q262.58,635.69 282.4,639.87 C302.23,644.05 317.9,657.6 329.08,657.68 C340.25,657.77 361.58,648.88 362.84,633.82 C364.11,618.77 375.26,595.17 349.18,594.87 C330.19,600.61 309.38,574.81 279.25,582.89 C251.46,590.11 247.34,611.78 239.9,619.5 L242.57,647.59 ZM242.19,558.35 C246.14,565.79 273.82,561.25 297.92,564.79 C322.01,568.34 342.52,579.96 352.06,577.72 C361.6,575.48 360.18,559.38 344.85,546.6 C329.51,533.82 300.27,524.36 285.26,520.48 C270.25,516.6 269.47,518.29 260.02,513.86 C257.99,531.49 238.23,550.91 242.19,558.35 ZM576.06,659.17 C564.44,653.95 533.43,633.5 509.87,630.13 C486.32,626.76 470.22,640.46 459.37,636.48 C438.69,628.88 429.46,601.98 434.88,589.85 C452.59,572.23 465.44,582.46 497.17,588.59 C528.72,599.42 565.93,611.27 581.84,652.04 C579.91,654.42 587.69,664.4 576.06,659.17 ZM555.11,536.76 C544.16,531.39 513.86,532.66 496.07,533.87 C478.28,535.07 473.01,536.21 475.55,543.95 C478.09,551.69 488.43,566.02 503.65,570.26 C518.88,574.5 539,568.64 558.92,562.84 C557.65,554.15 566.06,542.13 555.11,536.76 Z" fill-rule="evenodd" style="fill:#ffffff00;" />
				<path transform="matrix(0.8409071564674377, 0, 0, 0.8409071564674377, 728.9801635742188, 629.071533203125)" d="M-163.5,-211.11 L-175.22,35.77 L-115.99,-220.62 L-163.5,-211.11 ZM-49,-210.79 Q-109.59,46.45 -109.19,46.14 L4.06,-197.1 L-49,-210.79 ZM42.26,-192.1 L-34.13,79.41 L82.71,-160.35 L42.26,-192.1 ZM108.31,175.19 L44.01,212.87 L121.45,220.07 L108.31,175.19 ZM41.73,260.79 L92.63,254.19 L40.12,301.33 L41.73,260.79 ZM-386.18,183.75 Q-333.18,216.8 -332.82,217.06 L-365.94,124.73 L-386.18,183.75 ZM-263.59,206.54 L-295.78,98.62 L-239.58,166.15 L-263.59,206.54 ZM-567.63,-119.33 L-429.65,-61.76 L-587.34,-60.05 L-567.63,-119.33 ZM-561.86,34.41 L-455.38,-1.25 L-523.75,80.97 L-561.86,34.41 ZM-538.5,181.89 L-462.52,192.66 L-520.6,243.14 L-538.5,181.89 ZM140.78,-191.2 L113.49,-254.22 L181.08,-240.61 L140.78,-191.2 ZM181.43,-330.93 L114.5,-333.63 L163.17,-389.1 L181.43,-330.93 Z" fill-rule="evenodd" style="fill:#ffffff00;" />
				<g transform="matrix(0.9873790144920349, 0.15837399661540985, -0.15837399661540985, 0.9873790144920349, 79.99166107177734, -117.285888671875)">
					<path d="M820.23,511.27 C814.27,500.4 801.01,478.39 783.97,464.24 C794.71,459.92 796.68,442.49 798.45,430.62 C800.67,415.73 798.72,392.67 795.64,375.49 C792.68,358.93 781.1,343.34 779.99,327.5 C778.88,311.67 780.62,285.45 788.98,280.49 C797.35,275.53 820.72,286.26 830.19,297.75 C842.83,313.1 861.2,345.32 864.83,372.57 C868.59,400.7 860.15,443.99 852.72,466.54 C847.23,483.19 821.45,490.4 820.21,507.89 C820.13,508.98 820.14,510.11 820.23,511.27 L820.23,511.27 Z" fill-rule="evenodd" style="fill:none;" />
					<path d="M781.92,471.7 C788.97,459.17 803.08,434.09 802.68,413.49 C802.22,390.36 794.06,363.15 779.18,332.9 C769.73,313.69 775.94,291.55 781.91,282.28 C787.89,273.01 804.72,273.15 815.01,277.27 C825.31,281.4 835.94,295.63 843.67,307.03 C851.66,318.8 859.51,333.24 862.95,347.91 C867.31,366.55 872.57,397.55 869.85,418.88 C867.26,439.24 853.38,462.17 846.66,475.9 C842.17,485.08 833.73,495.89 829.51,501.3M829.51,501.3 C813.65,491.44 797.78,481.57 781.92,471.7" fill-rule="evenodd" style="fill:none;stroke:#000000;stroke-linecap:round;stroke-linejoin:round;stroke-width:21.02;" />
				</g>
				<path d="M238.78,642.2 C252.32,662.25 279.41,702.37 298.96,722.2 C315.15,738.62 339.21,754.22 356.1,761.19 C369.75,766.81 390.12,764.92 400.31,763.98M445.59,705.19 C436.42,720.09 418.08,749.88 405.08,768.67 C393.35,785.64 373.53,801.56 367.62,817.92 C362.07,833.26 363.46,855.31 369.6,866.83 C375.75,878.36 391.17,885.24 404.49,887.06 C418.97,889.05 442.14,888.84 456.5,878.74 C470.88,868.62 478.88,843.5 490.78,826.36 C504.55,806.52 527.62,775.28 539.15,759.66 C548.43,754.73 569.5,748.83 601.01,742.26 C603.23,746.18 617.61,763.29 631.79,771.77 C647.25,781.02 678.51,792.13 697.11,803.63 C713.93,814.04 731.14,826.47 743.4,840.77 C755.49,854.9 757.94,882.22 770.63,889.48 C783.31,896.74 807.74,892.85 819.51,884.34 C831.27,875.82 840.68,855.32 841.22,838.38 C841.84,818.64 828.1,786.8 823.26,765.92 C819.19,748.4 812.17,713.11 812.17,713.11 C812.22,711.68 817.74,698.68 828.79,672.01 C842.06,639.97 849.19,598.88 845.29,569.27 C841.6,541.22 826.75,512.91 805.38,494.37 C782.86,474.82 743.15,459.98 710.18,452.01 C677.21,444.04 632.28,446.34 607.56,446.55 C592.16,446.68 566.05,447.67 555.95,449.86 C361.44,480.96 277.6,478.4 277.37,478.45 C265.65,501.87 230.31,563.87 228.49,598.08 C226.67,632.3 245.91,667.92 254.58,698.89 C262.57,727.43 272.97,758.98 280.54,783.91 C287.07,805.42 296.46,831.93 300.01,848.47 C302.45,859.8 295.91,873.25 301.88,883.18 C308.02,893.39 322.41,907.7 336.82,909.73 C351.23,911.76 391.1,892.38 403.47,886.92M598.27,744.17 C604.61,755.33 616.49,783.21 621.56,801.6 C626.98,821.28 620.66,852.12 630,867.82 C639.33,883.53 662.84,895.18 677.57,895.84 C692.31,896.51 708.76,881.9 718.4,871.82 C727.68,862.14 732.87,844.3 735.46,835.38" style="fill:none;stroke:#000000;stroke-linecap:round;stroke-linejoin:round;stroke-width:21.02;" />
				<g transform="matrix(1, 0, 0, 1, 0, -0.10660181939601898)">
					<path transform="matrix(0.8409071564674377, -0.0000000015117215257376415, 0.0000000015117215257376415, 0.8409071564674377, 552.3433227539062, 483.037841796875)" d="M-35.79,-137.34 L-35.88,-137.4 C-35.93,-137.43 -36.35,-138.43 -37.14,-140.38 C-37.92,-142.34 -38.79,-144.09 -39.74,-145.65 C-40.69,-147.21 -41.79,-148.72 -43.04,-150.17 C-44.28,-151.62 -45.74,-152.91 -47.4,-154.04 C-49.06,-155.17 -50.69,-156.17 -52.29,-157.03 C-53.89,-157.89 -55.78,-158.58 -57.93,-159.09 C-60.09,-159.6 -62.14,-159.93 -64.07,-160.06 C-66,-160.2 -67.94,-159.96 -69.89,-159.36 C-71.83,-158.75 -73.68,-158.05 -75.44,-157.26 C-77.19,-156.48 -78.82,-155.55 -80.32,-154.48 C-81.83,-153.42 -83.28,-152.26 -84.67,-151 C-86.07,-149.75 -87.4,-148.33 -88.65,-146.75 C-89.91,-145.16 -91.08,-143.53 -92.18,-141.86 L-93.83,-139.35 L-95.63,-136.95 C-96.84,-135.36 -97.77,-133.71 -98.44,-132.01 C-99.11,-130.31 -98.45,-129.47 -96.45,-129.51 C-94.46,-129.54 -92.45,-129.65 -90.41,-129.83 C-88.38,-130.02 -86.36,-130.1 -84.36,-130.1 C-82.35,-130.09 -80.4,-130.07 -78.5,-130.03 C-76.6,-129.99 -74.69,-130.02 -72.76,-130.12 C-70.84,-130.22 -68.94,-130.27 -67.07,-130.28 C-65.19,-130.28 -64.05,-131.27 -63.63,-133.24 C-63.21,-135.19 -63.02,-137.15 -63.05,-139.1 L-79.18,-140.14 L-72.59,-143.59 C-71,-144.62 -69.31,-145.52 -67.53,-146.29 C-65.75,-147.06 -64.57,-146.55 -63.98,-144.77 C-63.4,-142.98 -63.09,-141.1 -63.05,-139.14 C-63.05,-139.12 -63.05,-139.11 -63.05,-139.1M-266.78,-131.82 L-266.86,-131.87 C-266.91,-131.91 -267.33,-132.9 -268.12,-134.85 C-268.91,-136.81 -269.78,-138.56 -270.72,-140.12 C-271.67,-141.68 -272.77,-143.19 -274.02,-144.64 C-275.27,-146.09 -276.72,-147.38 -278.38,-148.51 C-280.04,-149.64 -281.67,-150.64 -283.28,-151.5 C-284.88,-152.36 -286.76,-153.05 -288.92,-153.56 C-291.07,-154.08 -293.12,-154.4 -295.05,-154.53 C-296.99,-154.67 -298.93,-154.44 -300.87,-153.83 C-302.82,-153.22 -304.67,-152.53 -306.42,-151.74 C-308.18,-150.95 -309.81,-150.02 -311.31,-148.96 C-312.81,-147.89 -314.26,-146.73 -315.66,-145.48 C-317.05,-144.22 -318.38,-142.8 -319.63,-141.22 C-320.89,-139.63 -322.07,-138.01 -323.16,-136.33 L-324.81,-133.82 L-326.61,-131.43 C-327.82,-129.83 -328.75,-128.18 -329.42,-126.48 C-330.09,-124.78 -329.43,-123.94 -327.44,-123.98 C-325.45,-124.01 -323.43,-124.12 -321.4,-124.31 C-319.36,-124.49 -317.34,-124.58 -315.34,-124.57 C-313.34,-124.56 -311.39,-124.54 -309.49,-124.5 C-307.59,-124.46 -305.67,-124.49 -303.75,-124.59 C-301.82,-124.69 -299.92,-124.74 -298.05,-124.75 C-296.18,-124.76 -295.03,-125.74 -294.61,-127.71 C-294.19,-129.67 -294,-131.62 -294.04,-133.57 L-310.17,-134.61 L-303.57,-138.07 C-301.98,-139.09 -300.3,-139.99 -298.51,-140.76 C-296.73,-141.53 -295.55,-141.03 -294.97,-139.24 C-294.39,-137.45 -294.07,-135.57 -294.04,-133.61 C-294.04,-133.6 -294.04,-133.58 -294.04,-133.57M-205.75,-82.21 C-202.21,-75.46 -197.77,-70.48 -183.9,-66.74 C-174.8,-71.68 -170.88,-75.68 -165.79,-85.69M-225,-14.85 C-220.26,-6.96 -208.56,-5.83 -200.2,-6.93 C-184.64,-9 -182.47,-18.39 -180.58,-35.12 L-182.99,-62.56M-180.58,-34.77 C-179.51,-20.83 -167.86,-11.55 -157.33,-9.74 C-148.27,-9.82 -141,-12.91 -135.52,-19.04" fill-rule="evenodd" style="fill:none;stroke:#000000;stroke-linecap:round;stroke-linejoin:round;stroke-width:15;" />
					<g transform="matrix(0.9995490908622742, 0.030017849057912827, -0.030017849057912827, 0.9995490908622742, -7.803051948547363, -23.345294952392578)">
						<path d="M399.6,187.52 C385.29,186.63 375.36,186.85 366.43,187.87 C357.51,188.89 349.59,190.71 339.33,193.03 C311.62,197.59 292.52,210.73 276.56,226.66 L277.59,224.83 C260.85,215.53 220.3,207.06 197.65,204.1 C159.59,199.85 135.31,205.17 129.59,216.81 C122.61,231.04 140.81,268.67 150.71,289.05 C165.33,319.13 200.1,338.64 210.03,344.74 L212.1,341.06 C201.7,380.53 199.52,419.56 208.82,442.83 C216.03,462.42 262.38,492.42 279.69,501.67 C323.77,529.7 382.9,543.01 409.52,543.36 C432.97,544.66 489.24,530.23 528.02,504.65 C552.29,489.45 586.7,456.19 593.83,437.45 C601.04,418.5 598.72,388.55 593.23,365.04 C591.61,358.13 589.72,350.19 587.49,341.7 L591.52,349.32 C596.43,346.18 606.26,339.91 611.91,333.4 C621.55,322.31 640.51,301.76 649.37,282.72 C658.93,262.18 676.51,224.25 669.29,210.14 C662.07,196.04 627.28,194.94 606.05,198.08 C583.45,201.42 538.79,208.64 522.21,218.23 L526.93,227.17 C491.11,193.94 448.58,185.69 399.6,187.52 Z" fill-rule="evenodd" style="fill:url(#gradient_4);stroke:#000000;stroke-linecap:round;stroke-linejoin:round;stroke-width:25;" />
						<path transform="matrix(0.8405282497406006, -0.025242237374186516, 0.025242237374186516, 0.8405282497406006, 727.7315673828125, 314.05975341796875)" d="M-590.6,43.35 L-615.87,33.23 Q-558.98,52.93 -550.04,62.7 C-541.11,72.46 -510.82,49.67 -528.15,21.59 C-545.48,-6.49 -554.44,-3.15 -571.88,-5.2 C-589.33,-7.25 -599.47,-33.97 -607.49,-29.92 Q-615.51,-25.86 -617.5,32.14 L-619.12,32.27 L-590.6,43.35 ZM-581.31,-64.54 L-578.93,-66.43 L-550.89,-48.5 L-531.26,-1.5 Q-513.72,18.94 -503.78,14.18 C-493.85,9.43 -487.32,-16.71 -491.18,-34.37 C-495.04,-52.04 -505.89,-61.64 -519.2,-78.98 C-532.51,-96.33 -531.34,-120.62 -539.61,-116.59 L-581.31,-64.54 ZM-484.29,-147.75 L-483.09,-148.09 Q-469.02,-112.39 -465.52,-95.25 C-464.62,-90.82 -455.55,-74.66 -453.3,-70.1 C-448.74,-60.87 -445.15,-49.15 -447.04,-30.87 C-450.88,6.32 -466.62,19.54 -451.4,36.04 C-436.17,52.55 -431.55,22.57 -434.25,4.7 C-437.04,-13.8 -425.58,-49.7 -423.52,-84.77 C-421.61,-117.46 -429.14,-150.17 -430.15,-148.06 L-484.29,-147.75 ZM-404.91,-163.36 L-406.53,-163.9 L-403.34,-99.47 Q-405.78,-83.16 -400.83,-56.54 C-395.89,-29.92 -390.5,-28.06 -394.6,2.27 C-398.7,32.61 -402.82,31.24 -396.57,54.71 C-390.32,78.18 -369.52,73.55 -371.12,39.26 C-372.73,4.96 -367.81,-10.2 -374.45,-36.5 C-379.14,-55.09 -382.29,-107.92 -382.66,-127.66 C-383.03,-147.4 -373.68,-159.03 -374.15,-163.12 L-404.91,-163.36 ZM-331.13,-155.62 L-331.51,-155.46 L-351.12,-107.31 Q-354.91,-87.41 -353.5,-56.28 C-352.09,-25.14 -355.67,-40.79 -354.47,-7.14 C-353.27,26.51 -344.53,45.8 -336.9,51.38 C-329.28,56.97 -321.35,57.59 -323.74,26.6 C-326.12,-4.39 -326.74,-12.11 -324.97,-27.31 C-323.2,-42.52 -330.22,-49.35 -327.45,-73.29 C-324.68,-97.22 -332.38,-97.53 -320.72,-119.16 C-309.06,-140.8 -317.22,-135.14 -238.49,-127.47 L-331.13,-155.62 ZM-250.66,-107.43 Q-263.87,-71.88 -269.19,-61.95 C-274.5,-52.02 -285.57,-44.85 -286.51,-22.58 C-287.45,-0.31 -292.02,18.35 -279.87,24.6 C-267.72,30.84 -269.57,34.17 -258.95,17.65 C-248.34,1.14 -254.95,8.69 -246.4,-19.15 C-237.86,-46.99 -226.81,-57.22 -218.79,-72.93 C-213.26,-83.78 -229.78,-88.58 -250.66,-107.43 ZM-181.18,5.57 Q-202.07,17.34 -218.97,32.21 C-235.88,47.07 -242.04,56.24 -235.72,62.82 C-229.41,69.41 -217.45,71.47 -202.84,64.41 C-188.24,57.34 -183.32,48.97 -179.33,43.11 C-175.34,37.26 -172.97,28.72 -169.96,24.98 L-181.18,5.57 ZM-623.43,133.91 L-622.42,135.3 Q-603.06,127.27 -582.52,129.53 C-561.97,131.79 -549.38,124.1 -535.11,135.46 C-520.84,146.82 -510.73,155.52 -524.28,164.3 C-537.83,173.09 -563.79,168.44 -570.17,174 C-576.56,179.55 -610.41,165.64 -614.33,161.49 L-623.43,133.91 ZM-176.67,158.11 L-176.73,157.78 Q-194.85,145.53 -211.84,137.08 C-228.82,128.63 -246.22,111.54 -263.65,123.95 C-275.27,132.22 -255.49,153.64 -245.04,161.32 C-234.59,169 -202.72,177.79 -195.72,185.56 Q-188.71,193.33 -207.74,198.41 L-176.67,158.11 ZM-524.21,212.82 Q-505.08,190.16 -495.53,187.61 C-485.98,185.05 -457.32,172.69 -463.28,190.66 C-469.24,208.63 -468.93,219.82 -472.62,228.79 L-524.21,212.82 ZM-305.65,238.35 Q-314.65,215.39 -314.11,206.93 C-313.57,198.48 -318.36,178.67 -315.25,171.23 C-312.14,163.78 -292.46,172.07 -283.38,175.93 C-274.31,179.78 -268.73,199.52 -263.82,208.67 C-258.9,217.82 -261.2,238.15 -269.66,240.91 L-305.65,238.35 ZM-194.21,-73.79 Z" fill-rule="evenodd" style="fill:#ffffff00;" />
						<path transform="matrix(0.8405282497406006, -0.025242237374186516, 0.025242237374186516, 0.8405282497406006, 574.7078247070312, 296.82196044921875)" d="M-292.97,-120.46 L-249.87,23.21 L-248.11,-127.19 L-216.48,-136.93 L-205.31,42.7 L-175.9,-137.48 L-151.97,-139.34 L-160.59,39.24 L-111.75,-125.56 L-145.32,-139.85 L-235.3,-146.45 L-292.97,-120.46 ZM10.86,83.19 L-30.94,100.76 L20.51,111.92 L18.84,133.63 L-71.3,155.54 L18.54,160.94 L-1.05,194.27 L-68.52,199.6 L-25.18,219.14 L22.16,182.31 L27.68,124.7 L10.86,83.19 ZM-427.35,29.01 L-383.12,63.78 L-432.16,66.13 L-438.12,95.85 L-379.08,103.86 L-436.85,125.44 L-432.89,146.89 L-356.92,148.5 L-424.43,184.64 L-446.09,132.17 L-443.54,73.97 L-427.35,29.01 Z" fill-rule="evenodd" style="fill:#ffffff00;" />
						<path transform="matrix(0.8405281901359558, -0.025242235511541367, 0.025242235511541367, 0.8405281901359558, 556.4093627929688, 495.3732604980469)" d="M-34.37,-137.57 L-34.45,-137.62 C-34.51,-137.66 -34.93,-138.65 -35.71,-140.61 C-36.5,-142.56 -37.37,-144.31 -38.32,-145.87 C-39.27,-147.43 -40.36,-148.94 -41.61,-150.39 C-42.86,-151.84 -44.31,-153.13 -45.97,-154.26 C-47.63,-155.39 -49.26,-156.39 -50.87,-157.25 C-52.47,-158.11 -54.35,-158.8 -56.51,-159.31 C-58.67,-159.83 -60.71,-160.15 -62.64,-160.29 C-64.58,-160.42 -66.52,-160.19 -68.46,-159.58 C-70.41,-158.97 -72.26,-158.28 -74.01,-157.49 C-75.77,-156.7 -77.4,-155.77 -78.9,-154.71 C-80.4,-153.64 -81.85,-152.48 -83.25,-151.23 C-84.64,-149.97 -85.97,-148.55 -87.23,-146.97 C-88.48,-145.39 -89.66,-143.76 -90.75,-142.08 L-92.4,-139.57 L-94.21,-137.18 C-95.41,-135.58 -96.35,-133.93 -97.01,-132.23 C-97.68,-130.53 -97.02,-129.7 -95.03,-129.73 C-93.04,-129.77 -91.02,-129.87 -88.99,-130.06 C-86.95,-130.24 -84.93,-130.33 -82.93,-130.32 C-80.93,-130.31 -78.98,-130.29 -77.08,-130.25 C-75.18,-130.21 -73.26,-130.24 -71.34,-130.34 C-69.41,-130.44 -67.51,-130.49 -65.64,-130.5 C-63.77,-130.51 -62.62,-131.49 -62.2,-133.46 C-61.78,-135.42 -61.59,-137.37 -61.63,-139.32 L-77.76,-140.36 L-71.16,-143.82 C-69.57,-144.84 -67.89,-145.74 -66.11,-146.52 C-64.32,-147.29 -63.14,-146.78 -62.56,-144.99 C-61.98,-143.2 -61.67,-141.32 -61.63,-139.36 C-61.63,-139.35 -61.63,-139.33 -61.63,-139.32M-265.35,-132.04 L-265.43,-132.09 C-265.49,-132.13 -265.91,-133.12 -266.7,-135.08 C-267.48,-137.03 -268.35,-138.79 -269.3,-140.35 C-270.25,-141.91 -271.35,-143.41 -272.6,-144.86 C-273.84,-146.31 -275.3,-147.6 -276.96,-148.73 C-278.62,-149.86 -280.25,-150.86 -281.85,-151.72 C-283.45,-152.59 -285.33,-153.27 -287.49,-153.79 C-289.65,-154.3 -291.69,-154.62 -293.63,-154.76 C-295.56,-154.89 -297.5,-154.66 -299.45,-154.05 C-301.39,-153.45 -303.24,-152.75 -305,-151.96 C-306.75,-151.17 -308.38,-150.24 -309.88,-149.18 C-311.39,-148.12 -312.84,-146.96 -314.23,-145.7 C-315.63,-144.44 -316.95,-143.02 -318.21,-141.44 C-319.46,-139.86 -320.64,-138.23 -321.74,-136.56 L-323.38,-134.04 L-325.19,-131.65 C-326.39,-130.06 -327.33,-128.41 -328,-126.7 C-328.67,-125 -328,-124.17 -326.01,-124.2 C-324.02,-124.24 -322.01,-124.35 -319.97,-124.53 C-317.93,-124.71 -315.92,-124.8 -313.91,-124.79 C-311.91,-124.79 -309.96,-124.76 -308.06,-124.73 C-306.16,-124.69 -304.25,-124.71 -302.32,-124.81 C-300.39,-124.91 -298.5,-124.97 -296.62,-124.97 C-294.75,-124.98 -293.6,-125.97 -293.18,-127.93 C-292.76,-129.89 -292.58,-131.84 -292.61,-133.79 L-308.74,-134.83 L-302.14,-138.29 C-300.56,-139.32 -298.87,-140.22 -297.09,-140.99 C-295.31,-141.76 -294.12,-141.25 -293.54,-139.46 C-292.96,-137.67 -292.65,-135.8 -292.61,-133.83 C-292.61,-133.82 -292.61,-133.81 -292.61,-133.79M-204.32,-82.43 C-200.78,-75.68 -196.35,-70.7 -182.47,-66.96 C-173.37,-71.9 -169.45,-75.9 -164.36,-85.92M-223.58,-15.08 C-218.84,-7.18 -207.14,-6.05 -198.78,-7.15 C-183.22,-9.22 -181.04,-18.61 -179.15,-35.34 L-181.56,-62.78M-179.15,-35 C-178.08,-21.05 -166.44,-11.78 -155.91,-9.96 C-146.84,-10.04 -139.57,-13.14 -134.1,-19.26" fill-rule="evenodd" style="fill:none;stroke:#000000;stroke-linecap:round;stroke-linejoin:round;stroke-width:15;" />
						<path d="M606.05,198.08 C627.28,194.94 662.07,196.04 669.29,210.15 C676.51,224.25 658.93,262.18 649.37,282.72 C640.51,301.76 621.55,322.31 611.91,333.4 C606.26,339.91 596.43,346.18 591.52,349.32M522.21,218.23 C538.79,208.64 583.45,201.42 606.05,198.08 C627.28,194.94 662.07,196.04 669.29,210.15 C676.51,224.25 658.93,262.18 649.37,282.72 C640.51,301.76 621.55,322.31 611.91,333.4 C606.26,339.91 596.43,346.18 591.52,349.32M279.69,501.67 C262.38,492.42 216.03,462.42 208.82,442.83 C192.73,402.56 207.66,314.93 248.34,259.9 C270.19,230.33 293.65,200.54 339.33,193.03 C359.85,188.39 370.99,185.74 399.6,187.52 C460.19,185.26 510.91,198.41 551.27,255.2 C573.62,284.4 586.14,334.67 593.23,365.04 C598.72,388.55 601.04,418.5 593.83,437.45 C586.7,456.19 552.29,489.45 528.02,504.65 C489.24,530.23 432.97,544.66 409.52,543.36 C382.9,543.01 323.77,529.7 279.69,501.67 ZM277.59,224.83 C260.85,215.53 220.3,207.06 197.65,204.1 C159.59,199.85 135.31,205.17 129.59,216.81 C122.6,231.04 140.81,268.66 150.71,289.05 C165.33,319.13 200.1,338.64 210.03,344.74" fill-rule="evenodd" style="fill:none;stroke:#000000;stroke-linecap:round;stroke-linejoin:round;stroke-width:21.02;" />
					</g>
				</g>
			</g>
		</g>
	</g>
</svg>