<?xml version="1.0" encoding="UTF-8"?>
<!-- Created with Grafika (https://www.grafika.cc/) -->
<svg xmlns="http://www.w3.org/2000/svg" xmlns:svg="http://www.w3.org/2000/svg" xmlns:xlink="http://www.w3.org/1999/xlink" width="2048" height="2047.97" viewBox="0 0 960 960" preserveAspectRatio="xMidYMid meet">
	<defs>
		<clipPath id="mask_1">
			<rect x="-480" y="-480" width="960" height="960" />
		</clipPath>
		<radialGradient gradientUnits="userSpaceOnUse" gradientTransform="matrix(267.94989013671875, 36.33256912231445, -23.229475021362305, 180.7010955810547, 437.8258056640625, 332.38580322265625)" spreadMethod="pad" id="gradient_1" cx="0" cy="0" r="1">
			<stop offset="0.72%" stop-color="#B8AE9D" stop-opacity="1" />
			<stop offset="100%" stop-color="#574D3E" stop-opacity="1" />
		</radialGradient>
		<radialGradient gradientUnits="userSpaceOnUse" gradientTransform="matrix(267.4984436035156, 35.60183334350586, -23.720096588134766, 181.0041961669922, 423.50390625, 344.8846130371094)" spreadMethod="pad" id="gradient_2" cx="0" cy="0" r="1">
			<stop offset="0.72%" stop-color="#B8AE9D" stop-opacity="1" />
			<stop offset="100%" stop-color="#574D3E" stop-opacity="1" />
		</radialGradient>
		<radialGradient gradientUnits="userSpaceOnUse" gradientTransform="matrix(267.4984436035156, 35.60183334350586, -23.720096588134766, 181.0041961669922, 423.4576416015625, 344.9670715332031)" spreadMethod="pad" id="gradient_3" cx="0" cy="0" r="1">
			<stop offset="0.72%" stop-color="#B8AE9D" stop-opacity="1" />
			<stop offset="100%" stop-color="#574D3E" stop-opacity="1" />
		</radialGradient>
		<radialGradient gradientUnits="userSpaceOnUse" gradientTransform="matrix(267.4984436035156, 35.60183334350586, -23.720096588134766, 181.0041961669922, 423.3095703125, 345.0795593261719)" spreadMethod="pad" id="gradient_4" cx="0" cy="0" r="1">
			<stop offset="0.72%" stop-color="#B8AE9D" stop-opacity="1" />
			<stop offset="100%" stop-color="#574D3E" stop-opacity="1" />
		</radialGradient>
		<radialGradient gradientUnits="userSpaceOnUse" gradientTransform="matrix(267.49847412109375, 35.32731246948242, -23.720088958740234, 179.60855102539062, 424.0821228027344, 339.1370544433594)" spreadMethod="pad" id="gradient_5" cx="0" cy="0" r="1">
			<stop offset="0.72%" stop-color="#B8AE9D" stop-opacity="1" />
			<stop offset="100%" stop-color="#574D3E" stop-opacity="1" />
		</radialGradient>
	</defs>
	<g transform="matrix(1, 0, 0, 1, 480, 480)" clip-path="url(#mask_1)">
		<g transform="matrix(1.189192295074463, -0.0000000018558994341333346, 0.0000000018558994341333346, 1.189192295074463, -669.27490234375, -599.69873046875)">
			<g transform="matrix(0.9900025725364685, -0.14104793965816498, 0.14104793965816498, 0.9900025725364685, -34.22064208984375, 54.55902099609375)">
				<g transform="matrix(0.9122380018234253, 0.4096599817276001, -0.4096599817276001, 0.9122380018234253, 257.8659973144531, -273.4021301269531)">
					<path d="M803.65,500.57 C812.36,489.09 829.78,466.12 832.19,445.54 C834.9,422.43 830.52,394.16 819.88,361.89 C813.13,341.4 822.31,320.24 829.5,311.86 C836.69,303.47 853.38,306.02 863.03,311.6 C872.68,317.18 881.28,332.88 887.4,345.34 C893.72,358.21 899.54,373.71 900.95,388.82 C902.73,408.02 903.72,439.65 898.11,460.52 C892.76,480.43 875.86,501.28 867.31,514.01 C861.6,522.51 851.75,532.08 846.83,536.86M846.83,536.86 C832.44,524.76 818.04,512.67 803.65,500.57" fill-rule="evenodd" style="fill:url(#gradient_1);stroke:#000000;stroke-linecap:round;stroke-linejoin:round;stroke-width:21.02;" />
				</g>
				<path d="M235.2,663.24 C231.93,700.32 208.6,752.55 203.76,781.48 C200.71,799.7 197.09,824.04 206.14,836.85 C215.19,849.66 242.55,862.72 258.07,858.33 C283.67,851.09 284.72,827.34 300.18,814.13 C315.76,800.83 339.62,785.96 351.55,778.52 C344.15,701.65 308.66,639.54 228.09,611.16 C232.22,628.5 236.73,645.95 235.2,663.24" fill-rule="evenodd" style="fill:url(#gradient_2);stroke:#000000;stroke-linecap:round;stroke-linejoin:round;stroke-width:21.02;" />
				<path d="M700.05,883.94 C716.7,935.9 771.5,924.07 772.88,870.73 C769.6,848.66 770.44,762.66 772.54,777.17 C695.67,647.52 680.65,713.56 700.05,883.94 Z" fill-rule="evenodd" style="fill:url(#gradient_3);stroke:#000000;stroke-linecap:round;stroke-linejoin:round;stroke-width:21.02;" />
				<path d="M236.57,640.71 C250.69,694.08 318.62,758.75 356.61,780.74 C378.83,793.61 383.04,832.08 391.99,849.57 C398.13,861.59 401.75,876.36 410.27,885.69 C418.8,895.03 430.51,903.7 443.15,905.58 C455.92,907.47 476.47,904.05 486.85,897.08 C497.23,890.11 503.58,876.36 505.41,863.76 C507.42,849.91 501.48,829.05 498.92,813.99 C496.6,800.35 478.35,780.7 490.04,773.45 C517.74,756.28 652.89,742.19 639.92,775.3 C630.42,799.52 567.6,908.13 649.83,911.49 C685.57,912.95 703.03,839.78 768.86,773.38 C773.49,771.77 801.23,731.27 809.18,717.68 C826.78,687.57 839.55,647.56 839.81,617.47 C840.06,588.95 829.3,558.62 810.73,537.12 C791.16,514.45 753.91,494.07 722.39,481.5 C690.86,468.92 646.06,464.92 621.57,461.66 C606.31,459.63 585.69,461.16 291.95,426.32 C218.95,530.08 206.83,577.92 236.57,640.71 Z" fill-rule="evenodd" style="fill:url(#gradient_4);stroke:#000000;stroke-linecap:round;stroke-linejoin:round;stroke-width:21.02;" />
				<path d="M489.34,767.36 L489.26,767.23 Q489.18,767.11 483.84,762.68 Q478.51,758.26 474.95,752.27 Q471.4,746.28 466.6,739.43 Q461.81,732.57 461.6,726.25 Q461.4,719.93 467.05,716.01 Q472.7,712.1 479.45,712.95 Q486.21,713.81 492.52,717.83 L498.83,721.86 L504.25,725.42 Q509.66,728.98 515.06,732.84 Q520.45,736.69 527.48,739.74 Q534.5,742.79 539.02,747.11 Q543.55,751.43 537.1,754.04 Q530.65,756.64 523.67,758.14 Q516.68,759.65 510.22,761.61 Q503.76,763.57 497.99,766.25 L494.18,766.05M214.89,750.19 L214.98,750.66 Q215.07,751.13 221.92,752.98 Q228.77,754.83 235.5,756.98 Q242.24,759.13 248.44,761.81 Q254.65,764.5 261.33,767.11 Q268,769.73 267.97,776.54 Q267.94,783.36 263.22,787.22 Q258.5,791.08 252.77,793.35 Q247.04,795.62 240.29,796.47 Q233.53,797.31 227.03,796.79 Q220.52,796.27 214.14,795.47 Q207.75,794.67 205.44,789.08 Q203.12,783.5 205.98,777.14 L208.83,770.78 L213.94,758.37 L216.66,752.84 L217.51,748.7M229.84,684.9 L229.7,684.99 Q229.55,685.07 232.92,691.16 Q236.28,697.25 241.38,700.47 Q246.47,703.69 252.39,706 Q258.31,708.3 264.76,709.75 Q271.22,711.2 273.62,717.29 Q276.03,723.37 270.87,727.14 Q265.7,730.9 259.02,729.39 Q252.34,727.88 244.84,728.57 Q237.34,729.26 231.5,730.77 Q225.67,732.29 224.29,726.11 Q222.92,719.92 223.92,713.18 L224.91,706.43 L227.71,694.2 L229.56,688.22 L235.62,677.67M210.94,829.68 L211.08,829.2 Q211.21,828.72 215.25,823.28 Q219.3,817.83 225.28,815.81 Q231.26,813.78 237.96,812 Q244.67,810.22 250.7,811.85 Q256.73,813.47 256.26,819.95 Q255.78,826.42 250.64,831 L245.51,835.57 L240.16,840.51 Q234.82,845.44 228.66,846.99 Q222.51,848.53 217.76,843.96 Q213,839.4 209.33,833.73 L208.78,823.35M846.42,541.47 L846.32,541.57 Q846.22,541.67 842.21,535.55 Q838.2,529.43 835.53,523.71 Q832.86,518 832.8,511.63 Q832.73,505.26 835.11,499.64 Q837.49,494.02 843.69,495.08 Q849.89,496.13 853.68,502.44 L857.47,508.75 L860.58,514.21 Q863.69,519.67 869.76,521.22 Q875.82,522.78 879.45,516.92 Q883.09,511.07 886.95,506.22 Q890.8,501.38 889.51,495.02 Q888.21,488.66 882.63,484.44 Q877.05,480.21 873.35,474.54 L869.65,468.87 L866.12,463.8 Q862.59,458.72 861.26,452.41 Q859.94,446.11 863.38,440.01 Q866.83,433.92 872.35,430.15 Q877.88,426.39 882.65,431.95 Q887.42,437.5 893.37,441.11 Q899.32,444.71 902.94,449.53 L906.55,454.34 L910.43,459.18 Q914.32,464.02 918.51,458.69 Q922.7,453.37 922.36,446.56 L922.01,439.76 L920.63,427.44 L919.53,419.66 Q918.42,411.88 914.83,406.47 Q911.24,401.07 905.9,398.4 Q900.56,395.74 894.56,398.78 Q888.55,401.83 882.68,398.6 Q876.81,395.36 873.42,389.56 Q870.04,383.76 869.3,377.24 Q868.56,370.72 871.43,365.41 Q874.31,360.1 878.49,355.53 Q882.67,350.96 888.84,351.69 Q895.01,352.43 900.26,356.47 Q905.51,360.51 909.86,365.26 Q914.21,370.01 917.54,375.96 Q920.87,381.92 923.35,388.91 Q925.84,395.89 925.36,402.11 Q924.88,408.33 925.31,414.73 Q925.74,421.13 927.44,428.25 Q929.14,435.37 927.26,441.4 L925.38,447.43 L924.08,453.43 Q922.78,459.42 920.33,465.54 Q917.87,471.66 914.58,477.23 Q911.28,482.79 906.96,488.67 Q902.65,494.55 897.29,499.3 L891.93,504.05 L881.01,512.94 L871.61,520.73 L860.98,529.46 L856.51,533.57 Q852.03,537.68 846.96,541.7 L835.09,545.07M664.24,831.39 L663.75,831.44 Q663.26,831.49 667.24,827.84 Q671.22,824.19 674.35,819.26 Q677.48,814.33 681.13,807.16 L684.79,799.98 L687.36,794.97 Q689.93,789.97 694.99,785.36 Q700.05,780.76 704.93,777.37 Q709.81,773.98 715.9,772.54 Q721.99,771.1 726.97,776.28 Q731.94,781.46 733.59,786.9 Q735.23,792.33 732.46,798.08 Q729.69,803.83 726.32,808.41 Q722.95,813 717.92,818.56 L712.88,824.13 L703.67,833.91 L699.31,838.79 Q694.95,843.68 691.82,847.96 Q688.68,852.25 682.45,851.08 Q676.22,849.91 672.11,845.75 L663.57,833.5M702.46,876.26 L702.33,876.21 Q702.19,876.17 708.31,871.53 Q714.43,866.89 721.53,860.62 Q728.63,854.35 737.53,848.65 Q746.43,842.96 752.79,840.95 Q759.15,838.94 764.82,843.3 Q770.49,847.65 773.04,852.46 Q775.58,857.27 773.56,862.85 Q771.54,868.44 768.75,872.75 L765.96,877.06 L757.35,889.82 L754.42,894.14 Q751.49,898.45 746.1,901.82 Q740.72,905.19 734.61,908.34 Q728.51,911.48 723.56,912.88 Q718.62,914.28 716.28,909.02 Q713.94,903.75 712.17,898.13 Q710.4,892.51 707.4,887.04 L700.25,875.25M781.57,766.15 L780.59,766.57 Q779.61,767 774.4,770.86 Q769.18,774.72 763.46,780.6 L757.75,786.48 L752.88,791.55 Q748,796.61 744.29,803.07 Q740.58,809.53 743.94,816.85 Q747.31,824.17 754.28,823.97 Q761.26,823.78 767.38,819.58 Q764.07,818.5 769.87,815.65 Q775.67,812.8 775.04,805.86 Q774.41,798.92 774.66,791.75 L774.9,784.59 L775.07,777.84 L777.31,764.47M622.59,832.31 Q629.49,833.14 633.85,837.46 Q638.2,841.78 634.5,847.87 Q630.8,853.95 624.38,858.08 Q617.95,862.22 611.91,863.17 L605.87,864.12M656.17,914.09 L655.53,914.13 Q654.88,914.17 649.37,909.69 Q643.86,905.21 641.05,898.03 Q638.25,890.85 639.03,884.78 Q639.81,878.71 641.68,872.17 Q643.54,865.63 649.5,864.37 Q655.46,863.11 658.9,869.87 Q662.34,876.63 665.84,881.61 Q669.34,886.59 668.27,892.91 Q667.2,899.24 660.28,903.41 L639.37,914.75M406.99,718.82 L406.73,718.97 Q406.47,719.12 406.59,725.16 Q406.72,731.2 408.01,738.33 Q409.31,745.47 411.57,752.34 Q413.83,759.22 420.03,758.68 Q426.23,758.13 428.67,751.52 Q431.11,744.92 430.79,736.96 Q430.48,729 428.07,722.66 Q425.66,716.32 424.58,710.22 Q423.5,704.11 417.42,705.75 Q411.33,707.39 407.35,712.25M315.95,733.27 Q315.85,732.63 320.5,727.01 Q325.14,721.39 330.48,715.79 Q335.81,710.18 339.52,704.78 L343.22,699.37 L351.65,685.4 L358.47,673.53 L362.55,667.34 Q366.63,661.15 371.89,655.89 Q377.14,650.63 383.05,651.9 Q388.95,653.16 391.13,659.21 Q393.32,665.26 392.34,671.55 Q391.37,677.84 389.22,683.7 Q387.08,689.56 384.19,695.26 Q381.31,700.96 380.72,707.58 Q380.12,714.2 380.78,720.88 Q381.43,727.56 379.22,733.58 Q377.01,739.6 370.64,741.32 Q364.27,743.05 358.15,742.17 C355.43,741.78 340.8,735.94 332.69,732.81 L324.13,729.6M255.82,645.42 L255.82,645.94 Q255.83,646.47 260.42,650.87 Q265.01,655.27 270.46,657.99 Q275.91,660.72 282.58,660.29 Q289.26,659.85 295.42,657.97 Q301.58,656.1 307.53,653.81 Q313.49,651.52 318.38,655.55 Q323.28,659.57 321.01,665.68 Q318.75,671.78 314.55,676.41 L310.35,681.04 L305.42,686.26 Q300.49,691.47 295.67,695.2 Q290.86,698.93 286.77,694.38 Q282.67,689.84 276.73,686.03 Q270.8,682.22 265.44,676.48 Q260.08,670.75 258.28,664.38 L256.49,658.01 L254.93,651.8 L252.39,642.68M629.48,783.47 Q633.49,781.69 638.44,779.16 Q643.39,776.64 647.03,773.42 Q650.68,770.2 653.97,766.31 Q657.27,762.41 660.06,758.5 L662.84,754.58 L665.38,751.12 Q667.92,747.66 671.03,750.44 Q674.13,753.23 672.55,757.23 Q670.96,761.24 668.93,764.91 Q666.9,768.59 664.5,771.92 Q662.1,775.26 660.1,779.81 Q658.09,784.36 657.01,788.56 Q655.92,792.75 655.25,797.12 L648.94,822.2 C622.36,802.4 624.13,785.84 629.48,783.47 ZM559.44,756.08 L569.71,750.39 Q572.58,746.46 575.85,742.92 Q579.13,739.38 580.89,735.69 Q582.66,732 585.83,729 Q589,725.99 592.91,728.93 Q596.82,731.87 594.55,735.89 Q592.28,739.92 589.78,743.3 L587.28,746.69 L584.44,750.83 Q581.61,754.97 579.31,759.6 L577.83,755.63 L567.91,757.77 C566.86,760.87 557.64,758.64 559.44,756.08 ZM592.85,681.98 L592.73,682.01 Q592.61,682.05 589.22,685.72 Q585.82,689.39 582.39,692.63 L578.96,695.87 L576.03,698.65 Q573.09,701.44 571.78,705.97 Q570.48,710.5 570.5,715 Q570.52,719.5 574.24,721.09 Q577.97,722.67 581.3,720.07 L584.62,717.46 L588.2,714.82 Q591.78,712.19 595.3,709.28 L598.82,706.38 L602.2,703.64 Q605.57,700.91 608.26,697.83 Q610.94,694.75 612.82,691.02 Q614.69,687.28 615.55,683.25 Q616.41,679.22 614.85,675.36 Q613.29,671.5 610.89,667.88 Q608.49,664.26 605.24,667.21 Q601.98,670.16 599.45,673.73 L596.93,677.3 L594.38,680.58 L589.16,688.69M632.34,714.59 Q628.94,716.8 626.88,720.46 Q624.82,724.12 622.14,727.45 L619.46,730.78 L616.69,734.05 Q613.92,737.33 611.59,741.02 Q609.27,744.72 606.11,747.38 Q602.95,750.04 600.17,753.05 C596.47,757.05 613.8,770.17 624.78,762.09 Q628.9,759.05 632.35,756.81 Q635.81,754.56 639.38,752.64 Q642.96,750.73 646.58,748.56 Q650.2,746.4 651.97,742.53 Q653.73,738.65 653.26,734.05 L652.79,729.45 L652.3,725.07 Q651.81,720.7 650.22,716.26 Q648.64,711.82 644.82,710.47 L632.34,714.59 ZM642.83,606.09 L642.7,606.09 Q642.58,606.1 639.64,609.47 Q636.69,612.85 634.78,617.36 L632.87,621.88 L631.49,625.99 Q630.12,630.11 629.17,635.06 L628.22,640.01 L627.38,644.06 Q626.54,648.12 627.73,652.92 Q628.93,657.72 631.08,661.64 L633.24,665.56 L635.3,669.29 Q637.36,673.02 637.41,677.41 Q637.45,681.79 641.03,678.61 Q644.61,675.42 645.31,670.44 L646.01,665.47 L646.91,656.57 L648.45,647.51 L648.96,642.98 Q649.47,638.45 649.4,633.81 Q649.33,629.17 650.13,624.89 L650.94,620.62 L652.09,616.68 Q653.23,612.74 651.84,608.92 L642.83,606.09 ZM701.88,696.93 C701.68,696.91 699.99,697.16 697.37,697.71 Q693.44,698.53 691.61,702.44 Q689.79,706.35 688.25,711.09 Q686.7,715.83 684.13,720.18 L681.56,724.53 L679.39,728.47 Q677.22,732.41 676.27,736.69 Q675.32,740.98 679.59,738.87 Q683.86,736.77 687.08,733.22 Q690.3,729.67 693.71,727.19 Q697.13,724.71 700.23,722.04 Q703.32,719.37 705.95,716.1 Q708.58,712.83 709.52,708.08 Q710.45,703.33 710.12,699.02 Q709.8,694.71 705.82,694.35 L701.88,696.93 ZM669.58,625.9 Q667.49,629.73 666.19,634.11 Q664.89,638.48 665.26,644.25 Q665.62,650.02 668.21,653.89 L670.8,657.75 L673.44,661.55 Q676.07,665.34 676.41,669.9 L676.76,674.45 L676.95,679.22 Q677.14,683.99 680.48,686.39 Q683.82,688.8 686.69,685.31 Q689.55,681.81 691.22,677.88 Q692.89,673.94 693.6,669.6 Q694.32,665.26 694.45,660.94 L694.59,656.61 L695.21,647.38 L695.16,642.79 Q695.11,638.21 692.75,633.86 Q690.38,629.51 688.62,625.6 C686.27,620.39 674.81,616.33 669.58,625.9 ZM711.77,613.25 Q708.35,615.71 708,620.13 Q707.65,624.56 709.29,629.02 Q710.94,633.47 713.39,637.27 Q715.83,641.06 717.73,645.23 Q719.63,649.41 720.92,653.38 Q722.21,657.35 724.56,661.94 L726.91,666.53 L728.71,670.44 Q730.5,674.34 731.58,678.51 Q732.67,682.68 731.65,687.41 Q730.62,692.13 731.1,696.51 Q731.58,700.88 734.83,703.87 Q738.07,706.86 741.09,703.38 Q744.11,699.9 746.12,695.8 Q748.14,691.7 748.18,687.22 Q748.22,682.73 747.62,677.98 Q747.02,673.23 747.84,669.06 L748.65,664.89 L749.35,660.87 Q750.04,656.85 746.94,653.38 Q743.84,649.91 742.9,645.11 L741.96,640.31 L741.46,635.64 Q740.95,630.97 739.86,626.89 Q738.76,622.81 736.87,619.08 Q734.98,615.36 731.83,612.47 Q728.68,609.58 724.53,609.63 L716,612.33 L711.77,613.25 ZM772.83,651.1 L772.73,651.05 Q772.62,651.01 768.83,652.4 Q765.04,653.79 764.3,658.68 Q763.56,663.56 764.2,667.82 Q764.84,672.08 767.12,675.61 Q769.41,679.14 768.5,683.24 L767.59,687.33 L766.84,691.5 Q766.08,695.67 764.7,699.63 L763.31,703.58 L761.05,712.63 L760.15,716.92 Q759.25,721.22 759.53,725.47 Q759.82,729.72 764.32,728.66 Q768.82,727.59 772.63,725.32 Q776.44,723.05 777.7,718.95 Q778.96,714.85 779.87,710.16 L780.79,705.47 L783.18,696.05 L784.59,691.59 Q786,687.14 786.6,682.86 Q787.21,678.58 787.18,674.33 Q787.16,670.08 785.96,665.99 Q784.76,661.91 783.98,657.5 Q783.19,653.08 778.86,652.91 L772.83,651.1 ZM826.28,594.8 L825.9,595.1 Q825.52,595.39 823.45,591.89 Q821.38,588.38 817.54,591.42 Q813.7,594.46 812.59,598.94 Q811.47,603.43 811.72,608.17 L811.97,612.9 L812.07,617.25 Q812.17,621.59 811.72,625.64 L811.27,629.69 L810.51,633.99 Q809.76,638.28 808.63,642.2 L807.51,646.12 L805.42,655.6 L802.75,664.62 L801.1,669.48 Q799.45,674.34 802.01,677.7 Q804.56,681.07 805.42,685.14 Q806.28,689.21 808.45,685.21 L810.62,681.21 L815.39,672.02 L819.91,664.23 L822.55,660.31 Q825.19,656.38 826.67,651.92 L828.16,647.45 L830.16,638.95 L831.39,634.48 Q832.61,630.02 833.11,625.78 L833.62,621.55 L834.49,617.21 Q835.35,612.87 834.4,608.37 Q833.45,603.88 832.16,599.8 L823.91,591.09M671.57,475.03 L671.54,474.94 Q671.51,474.84 671.1,479.65 Q670.68,484.47 668.8,489.31 Q666.91,494.15 664.39,498.55 L661.87,502.95 L659.2,506.98 Q656.52,511.01 656.21,515.05 Q655.91,519.09 659.73,517.54 Q663.54,515.98 666.75,512.34 Q669.96,508.69 673.14,506.12 Q676.33,503.55 679.9,501.62 Q683.47,499.68 686.83,497.1 Q690.2,494.53 694.05,492.86 Q697.9,491.18 697.77,487.13 L692.67,479.1M745.62,539.48 L743.64,543.7 Q741.66,547.93 742.19,552.08 Q742.72,556.24 744.42,560.77 L746.12,565.31 L749.01,575.29 L750.75,583.56 L751.63,588.41 Q752.51,593.26 750.85,598.05 Q749.18,602.85 747.48,606.59 Q745.77,610.33 745.69,614.84 Q745.61,619.35 746.97,623.18 Q748.33,627.01 753.2,627.39 Q758.08,627.77 762.01,628.63 Q765.93,629.5 770.23,629.03 Q774.53,628.56 776.9,624.2 Q779.28,619.85 780.63,616.01 Q781.98,612.18 783.96,608.51 Q785.95,604.83 787.16,600.59 Q788.37,596.35 788.02,591.98 Q787.68,587.61 786.11,583.89 Q784.53,580.18 783.54,576.16 Q782.54,572.14 783.54,567.69 Q784.54,563.24 783.15,558.49 Q781.76,553.74 779.39,550.15 Q777.03,546.57 774.04,543.34 Q771.06,540.12 767.11,538.31 Q763.16,536.49 758.87,534.63 C751.55,534.96 747.14,536.58 745.62,539.48 ZM679.35,518.11 L678.99,518.03 Q678.64,517.95 674.77,521.83 Q670.91,525.71 668.65,530.87 Q666.4,536.04 665.87,540.8 Q665.34,545.55 666.27,550.78 Q667.2,556.01 668.73,560.25 Q670.27,564.48 669.29,569.6 Q668.31,574.72 666.46,580.41 L664.61,586.09 L662.85,591.15 Q661.09,596.2 664.37,599.06 Q667.65,601.92 670.7,599.06 L673.74,596.2 L677.03,593.39 Q680.32,590.57 684.74,590.32 Q689.16,590.06 694.03,588.99 Q698.9,587.91 702.18,584.66 Q705.46,581.4 707.31,577.58 L709.15,573.76 L710.95,570 Q712.75,566.24 713.33,561.77 Q713.9,557.3 713.83,553.21 Q713.75,549.13 712.79,544.97 Q711.83,540.81 709.31,537.42 L706.8,534.03 L704.26,530.34 Q701.71,526.65 699.64,522.92 Q697.57,519.19 693.5,517.93 Q689.43,516.66 685.39,516.92 L680.87,517.63M612.34,475.45 C611.57,475.49 596.4,464.94 589.5,470.29 C589.55,473.08 600.8,511.29 600.81,514.64 L598.68,555.32 C598.47,560.26 589.12,585.46 584.17,597.65 L581.42,605.37 C568.76,626.39 581.74,634.84 595.29,619.37 L597.23,615.6 C601.7,608.03 611.98,588.34 614.84,582.26 C617.13,577.5 620.18,569.88 621.13,567.26 C621.9,564.71 618.38,526.51 619.39,521.29 L620.15,517.38 C622.23,503.38 625.93,480.87 624.32,479.01 C621.7,476 615.57,473.8 611.43,473.2 L612.34,475.45 ZM545.75,478 C545.62,479 542.11,493.51 543.64,500.05 C544.4,503.31 549.65,528.05 550.11,529.69 C551.19,533.6 545.67,544.64 545.24,547.98 C542.36,549.44 545.27,566.84 549.17,570.27 C549.08,575.9 550.68,588 551.22,591.05 C553.37,603.27 573.38,591.2 573.58,564.13 C573.61,560.75 579.74,527.11 580.08,523.61 L580.59,518.34 C582.41,492.3 575.59,467.17 558.51,466.21 C553.22,465.92 548.03,479.44 545.75,478 ZM527.33,700.76 C521.56,696.09 454.02,681.41 447.85,672.26 C443.13,656.58 489.68,647.81 494.62,650.22 C507.45,656.49 549.66,684.79 553.78,685.5 C566.14,687.64 557.5,709.1 550.27,718.84M230.61,610.38 Q252.08,601.31 271.13,608.26 C290.18,615.22 303.82,630.93 314.87,632.59 C325.93,634.24 348.28,628.36 351.63,613.51 C354.98,598.66 369.31,576.68 343.52,572.72 C323.92,575.78 306.9,547.12 275.94,550.96 C247.42,554.26 240.32,575.31 231.88,581.98 L230.61,610.38 ZM242.65,521.27 C245.54,529.25 273.58,528.6 296.94,535.51 C320.31,542.43 339,556.91 348.76,556.01 C358.52,555.11 359.35,538.84 345.95,523.94 C332.54,509.03 304.9,495.49 290.58,489.51 C276.25,483.53 275.24,485.11 266.51,479.37 C262.04,496.68 239.77,513.29 242.65,521.27 ZM559.25,668.72 C548.47,661.87 520.6,637.11 497.74,630.45 C474.89,623.78 457.04,635.2 446.85,629.7 C427.43,619.21 422.03,591.08 429.08,579.73 C449.08,564.63 460.38,576.64 490.94,587.21 C520.68,602.44 555.88,619.49 565.96,662.41 C563.72,664.51 570.03,675.56 559.25,668.72 ZM555.54,543.61 C545.44,536.71 515.25,533.74 497.47,532.44 C479.69,531.15 474.31,531.55 475.75,539.63 C477.18,547.7 485.43,563.46 499.92,569.83 C514.41,576.19 535.14,573.16 555.67,570.17 C555.63,561.32 565.63,550.51 555.54,543.61 ZM478.2,786.82 L478.13,786.79 Q478.06,786.76 474.98,786.48 Q471.9,786.2 467.17,787.31 Q462.44,788.42 458.2,789.26 Q453.95,790.09 448.82,791.73 Q443.7,793.36 437.95,796.13 Q432.19,798.91 429.31,800.48 L426.43,802.05 L421.08,805.02 L418.63,806.39 Q416.18,807.75 411.92,810.77 Q407.65,813.8 404.61,816.71 Q401.57,819.63 400.35,822.61 Q399.13,825.59 400.88,827.93 Q402.62,830.26 407.33,830.88 Q412.03,831.5 414.82,831.31 Q417.6,831.12 420.47,830.6 Q423.35,830.07 426.26,829.76 Q429.18,829.45 431.93,829.18 Q434.68,828.92 439.35,828.13 Q444.01,827.34 446.87,826.82 Q449.74,826.29 453.61,825.32 Q457.49,824.34 460.86,823.28 L464.24,822.22 L468.75,820.75 Q473.27,819.27 475.83,818.13 Q478.4,817 481.18,815.91 Q483.95,814.83 487.09,814.93 Q490.22,815.03 490.23,817.94 Q490.23,820.85 488.3,823.28 Q486.36,825.7 483.55,827 Q480.74,828.3 477.43,829.51 L474.12,830.71 L471.32,831.69 Q468.52,832.66 464.92,833.19 Q461.32,833.71 458.32,834.45 Q455.32,835.18 452.38,836.42 Q449.44,837.65 447.02,839 Q444.6,840.34 441.85,842.32 L439.1,844.31 L436.7,846.16 Q434.29,848.01 430.73,851.49 Q427.17,854.97 425.16,857.72 Q423.16,860.47 421.85,863.21 Q420.54,865.95 420.47,870.93 Q420.39,875.9 421.33,878.5 Q422.27,881.11 424.67,883.46 Q427.07,885.81 429.79,887.72 L432.5,889.62 L434.89,891.31 Q437.27,893 441.04,892.23 L444.8,891.45 L448.29,890.73 Q451.79,890.01 454.98,888.97 Q458.17,887.92 461.87,886.4 Q465.57,884.87 468.51,883.16 L471.44,881.45 L477.28,877.78 L480.44,875.79 Q483.6,873.81 485.73,871.86 Q487.86,869.91 490.11,867.45 Q492.36,864.99 494.78,863.28 Q497.21,861.57 498.97,859.35 Q500.74,857.13 501.57,853.49 Q502.41,849.86 502.22,846.07 Q502.03,842.27 501.58,839.4 L501.14,836.52 L500.45,832.53 Q499.76,828.55 500.18,824.27 Q500.59,819.99 500.27,816.63 Q499.95,813.27 497.57,811.38 Q495.19,809.5 493.33,806.17 Q491.47,802.85 489.03,800.97 Q486.59,799.08 485.07,795.47 L479.88,786.96" fill-rule="evenodd" style="fill:#42392C;" />
				<path transform="matrix(0.8409071564674377, -0.000000003617968591385079, 0.000000003617968591385079, 0.8409071564674377, 728.9800415039062, 629.071533203125)" d="M-155.33,-205.28 L-192.19,51.64 L-113.09,-198.81 L-155.33,-205.28 ZM-68.4,-193.76 L-127.94,50.57 L-4.9,-174.31 L-68.4,-193.76 ZM37.5,-161 Q-81.59,81.7 -77.55,80 L67.65,-135.96 L37.5,-161 ZM151.43,-107.54 L142.58,-186.03 L198.34,-145.73 L151.43,-107.54 ZM150.08,-244.58 L200.14,-260.38 L166.16,-310.09 L150.08,-244.58 ZM-568.41,-165.47 L-474.1,-62.57 L-610.33,-64.15 L-568.41,-165.47 ZM-588.74,8.92 L-464.35,1.86 L-548.76,59.57 L-588.74,8.92 ZM-602.09,113.85 L-547.9,154.67 L-615.99,162.29 L-602.09,113.85 ZM-545.29,263.78 L-599.27,205.19 L-508.01,223.28 L-545.29,263.78 ZM-285.82,215.9 L-351.18,255.97 L-254.29,252.76 L-285.82,215.9 ZM-29.13,263.4 L-101.88,203.34 L-15.2,223.19 L-29.13,263.4 ZM56.22,152.12 L-56.86,133.54 Q87.53,101.97 92.21,101.83 L56.22,152.12 ZM-392.63,285.68 L-323.97,281.29 L-369.89,318.4 L-392.63,285.68 Z" fill-rule="evenodd" style="fill:#ffffff00;" />
				<path transform="matrix(1, 0.0000000000000006486586780402905, -0.0000000000000006486586780402905, 1, 0.00000000000000000002326686033729627, -0.000035869190469384193)" d="M700.05,883.94 C716.7,935.9 771.5,924.07 772.88,870.73 C769.6,848.66 770.44,762.66 772.54,777.17M785.92,512.46 C798.57,505.55 823.87,491.74 834.5,473.95 C846.44,453.98 854.03,426.39 857.54,392.6 C859.77,371.14 876.82,355.6 886.82,350.9 C896.81,346.2 910.99,355.35 917.51,364.4 C924.02,373.44 925.44,391.29 925.91,405.16 C926.41,419.49 925.37,436.02 920.46,450.38 C914.22,468.62 902.16,497.88 888.5,514.62 C875.46,530.59 851.5,542.69 838.49,550.8M785.92,512.46 L785.92,512.46M235.2,663.24 C231.93,700.32 208.6,752.55 203.76,781.48 C200.71,799.7 197.09,824.04 206.14,836.85 C215.19,849.66 242.55,862.72 258.07,858.33 C283.67,851.09 284.72,827.34 300.18,814.13 C315.76,800.83 339.62,785.96 351.55,778.52M228.09,611.16 C232.22,628.5 236.73,645.95 235.2,663.24M236.57,640.71 C250.69,694.08 318.62,758.75 356.61,780.74 C378.83,793.61 383.04,832.08 391.99,849.57 C398.13,861.59 401.75,876.36 410.27,885.69 C418.8,895.03 430.51,903.7 443.15,905.58 C455.92,907.47 476.47,904.05 486.85,897.08 C497.23,890.11 503.58,876.36 505.41,863.76 C507.42,849.91 501.48,829.05 498.92,813.99 C496.6,800.35 478.35,780.7 490.04,773.45 C517.74,756.28 652.89,742.19 639.92,775.3 C630.43,799.52 567.6,908.13 649.83,911.49 C685.57,912.95 703.03,839.78 768.86,773.38 C773.49,771.77 801.23,731.27 809.18,717.68 C826.78,687.57 839.55,647.56 839.81,617.47 C840.06,588.95 829.3,558.62 810.73,537.12 C791.16,514.45 753.91,494.07 722.39,481.5 C690.86,468.92 646.06,464.92 621.57,461.66 C606.31,459.63 585.69,461.16 291.95,426.32 C218.95,530.08 206.83,577.92 236.57,640.71 Z" fill-rule="evenodd" style="fill:none;stroke:#000000;stroke-linecap:round;stroke-linejoin:round;stroke-width:21.02;" />
			</g>
			<path d="M350.1,151.09 C309.09,163.54 278.06,202.34 252.99,235.39 C227.93,268.43 201.71,318.31 199.73,349.36 C197.96,377.08 221.27,402.26 241.13,421.69 C262.74,442.86 304.21,462.4 329.44,476.35 C349.68,487.54 374.2,501.1 392.48,505.37 C407.65,508.92 424.13,506.31 439.1,501.97 C466.14,494.13 527.25,471.42 554.72,458.33 C572.87,449.68 594.23,441.05 603.91,423.43 C613.69,405.62 615.57,375.56 613.42,351.45 C610.63,320.3 605.25,268.64 587.2,236.53 C569.15,204.43 540.56,171.6 505.11,158.82 C465.6,144.58 392.12,138.33 350.1,151.09 L350.1,151.09 ZM573.29,209.22 C591.05,202.02 626.56,187.6 649.41,187.43 C670.87,187.28 705.17,193.2 710.35,208.22 C715.53,223.23 692.83,258.45 680.5,277.52 C669.07,295.19 647.42,312.95 636.33,322.63 C629.82,328.3 619.22,333.16 613.92,335.59M211.42,281.16 C202.85,264.56 185.71,231.37 180.86,206.67 C176.13,182.56 169.31,145.36 182.33,132.96 C195.35,120.57 237.34,127.35 258.97,132.32 C278.87,136.89 301.04,154.16 312.12,162.79" fill-rule="evenodd" style="fill:url(#gradient_5);stroke:#000000;stroke-linecap:round;stroke-linejoin:round;stroke-width:21.02;" />
			<path transform="matrix(0.8409067988395691, 0.00004392545088194311, -0.00004392545088194311, 0.8409067988395691, 716.97607421875, 302.4891662597656)" d="M-553.47,-9.72 L-577.08,-23.25 Q-523.48,4.17 -515.99,15.09 C-508.51,26 -475.34,7.65 -488.59,-22.57 C-501.85,-52.79 -511.18,-50.73 -528.17,-55.19 C-545.16,-59.65 -551.49,-87.51 -559.99,-84.62 Q-568.5,-81.72 -578.54,-24.55 L-580.16,-24.66 L-553.47,-9.72 ZM-529.25,-115.27 L-526.63,-116.81 L-501.35,-95.14 L-488.45,-45.87 Q-473.93,-23.19 -463.43,-26.51 C-452.93,-29.84 -442.83,-54.81 -444.2,-72.85 C-445.56,-90.88 -454.97,-101.9 -465.73,-120.92 C-476.5,-139.95 -471.96,-163.84 -480.71,-161 L-529.25,-115.27 ZM-421.59,-184.16 L-420.35,-184.33 Q-411.39,-147.02 -410.31,-129.55 C-410.04,-125.05 -403.3,-107.78 -401.71,-102.96 C-398.48,-93.18 -396.56,-81.07 -400.97,-63.23 C-409.95,-26.93 -427.38,-16.04 -414.6,2.42 C-401.82,20.88 -393.07,-8.15 -393.25,-26.23 C-393.44,-44.94 -377.1,-78.89 -370.18,-113.34 C-363.74,-145.44 -366.64,-178.88 -367.93,-176.93 L-421.59,-184.16 ZM-340.81,-188.57 L-342.34,-189.33 L-348.15,-125.08 Q-352.83,-109.27 -351.64,-82.22 C-350.45,-55.18 -345.37,-52.58 -353.66,-23.11 C-361.94,6.35 -365.83,4.43 -362.91,28.54 C-359.98,52.65 -338.74,50.96 -335.55,16.78 C-332.37,-17.41 -325.39,-31.74 -328.3,-58.71 C-330.36,-77.77 -326.13,-130.52 -323.75,-150.12 C-321.37,-169.72 -310.49,-179.94 -310.39,-184.05 L-340.81,-188.57 ZM-268.83,-170.64 L-269.23,-170.53 L-295.35,-125.58 Q-301.87,-106.4 -304.81,-75.37 C-307.74,-44.34 -309.11,-60.34 -312.6,-26.85 C-316.1,6.64 -310.12,26.96 -303.35,33.55 C-296.58,40.14 -288.81,41.86 -286.86,10.84 C-284.91,-20.19 -284.45,-27.91 -280.58,-42.72 C-276.71,-57.53 -282.71,-65.28 -276.64,-88.6 C-270.57,-111.91 -278.15,-113.29 -263.59,-133.09 C-249.03,-152.89 -257.91,-148.42 -181,-129.87 L-268.83,-170.64 ZM-195.84,-111.71 Q-213.88,-78.35 -220.53,-69.26 C-227.17,-60.16 -239.13,-54.61 -243.16,-32.68 C-247.19,-10.76 -254.31,7.09 -243.15,14.96 C-231.98,22.84 -234.28,25.87 -221.47,10.99 C-208.66,-3.88 -216.26,2.68 -203.92,-23.7 C-191.58,-50.09 -179.21,-58.68 -169.09,-73.12 C-162.1,-83.09 -177.8,-90.15 -195.84,-111.71 ZM-142.77,9.85 Q-165.09,18.61 -183.9,30.97 C-202.72,43.34 -210.09,51.56 -204.75,58.96 C-199.41,66.36 -187.86,70.07 -172.41,65.1 C-156.96,60.14 -150.93,52.53 -146.16,47.29 C-141.4,42.04 -137.86,33.92 -134.36,30.63 L-142.77,9.85 ZM-598.57,75.4 L-597.78,76.91 Q-577.48,71.65 -557.45,76.75 C-537.42,81.85 -523.89,75.99 -511.33,89.22 C-498.78,102.46 -489.98,112.47 -504.62,119.29 C-519.26,126.11 -544.32,117.89 -551.42,122.51 C-558.51,127.12 -590.09,108.63 -593.41,103.97 L-598.57,75.4 ZM-159.53,161.54 L-159.55,161.21 Q-175.78,146.55 -191.43,135.82 C-207.08,125.08 -221.92,105.75 -240.91,115.6 C-253.57,122.18 -236.96,146.14 -227.68,155.2 C-218.4,164.26 -196.17,170.93 -190.31,179.6 Q-185.58,174.72 -197.05,183.56 L-159.53,161.54 ZM-511.31,167.35 Q-489.21,147.57 -479.4,146.37 C-469.58,145.17 -439.48,136.91 -447.88,153.88 C-456.28,170.84 -457.54,181.97 -462.44,190.34 L-511.31,167.35 ZM-298.42,223.05 Q-304.14,199.06 -302.43,190.76 C-300.71,182.46 -302.71,162.18 -298.59,155.24 C-294.48,148.3 -276.14,159.25 -267.69,164.33 C-259.24,169.41 -256.46,189.73 -252.87,199.48 C-249.27,209.22 -272.24,219.12 -280.99,220.67 L-298.42,223.05 ZM-144.63,-70.55 Z" fill-rule="evenodd" style="fill:#42392C;" />
			<path transform="matrix(0.8385330438613892, 0.06314047425985336, -0.06314047425985336, 0.8385330438613892, 566.6234130859375, 289.0172424316406)" d="M-229.27,-158.43 L-206.93,-12.36 L-184.59,-158.84 L-152.4,-164.01 L-166.13,12.77 L-112.73,-158.98 L-89.13,-157.51 L-122.02,15.52 L-51.78,-138.55 L-82.58,-157.1 L-168.6,-163.39 L-229.27,-158.43 ZM55.14,78.77 L-3.98,93.31 L60.62,108.12 L56.02,129.07 L-50.86,141.22 L48.01,157.36 L12.36,188.64 L-54.19,184.59 L-14.59,209.59 L36.64,180.15 L65.87,121.57 L55.14,78.77 ZM-380.86,-31.03 L-342.48,8.95 L-390.64,4.52 L-400.54,32.69 L-344.03,48.61 L-419.38,80.03 L-418.46,101.5 L-328.54,95.19 L-415.39,139.49 L-429.32,85.33 L-402.82,10.61 L-380.86,-31.03 Z" fill-rule="evenodd" style="fill:#ffffff00;" />
			<path d="M350.1,151.09 C309.09,163.54 278.06,202.34 252.99,235.39 C227.93,268.43 201.71,318.31 199.73,349.36 C197.96,377.08 221.27,402.26 241.13,421.69 C262.74,442.86 304.21,462.4 329.44,476.35 C349.68,487.54 374.2,501.1 392.48,505.37 C407.65,508.92 424.13,506.31 439.1,501.97 C466.14,494.13 527.25,471.42 554.72,458.33 C572.87,449.68 594.23,441.05 603.91,423.43 C613.69,405.62 615.57,375.56 613.42,351.45 C610.63,320.3 605.25,268.64 587.2,236.53 C569.15,204.43 540.56,171.6 505.11,158.82 C465.6,144.58 392.12,138.33 350.1,151.09 L350.1,151.09 ZM573.29,209.22 C591.05,202.02 626.56,187.6 649.41,187.43 C670.87,187.28 705.17,193.2 710.35,208.22 C715.53,223.23 692.83,258.45 680.5,277.52 C669.07,295.19 647.42,312.95 636.33,322.63 C629.82,328.3 619.22,333.16 613.92,335.59M211.42,281.16 C202.85,264.56 185.71,231.37 180.86,206.67 C176.13,182.56 169.31,145.36 182.33,132.96 C195.35,120.57 237.34,127.35 258.97,132.32 C278.87,136.89 301.04,154.16 312.12,162.79" fill-rule="evenodd" style="fill:none;stroke:#000000;stroke-linecap:round;stroke-linejoin:round;stroke-width:21.02;" />
			<path transform="matrix(0.8409069180488586, -0.0000000024929658337669025, 0.0000000024929658337669025, 0.8409069180488586, 547.7031860351562, 485.6347961425781)" d="M-6.21,-142.23 L-6.28,-142.3 C-6.33,-142.34 -6.61,-143.39 -7.12,-145.43 C-7.63,-147.47 -8.24,-149.33 -8.96,-151.01 C-9.69,-152.69 -10.56,-154.33 -11.6,-155.94 C-12.63,-157.55 -13.89,-159.03 -15.38,-160.38 C-16.86,-161.73 -18.34,-162.95 -19.81,-164.02 C-21.27,-165.1 -23.04,-166.04 -25.11,-166.85 C-27.17,-167.66 -29.15,-168.26 -31.05,-168.67 C-32.94,-169.07 -34.9,-169.11 -36.91,-168.78 C-38.92,-168.45 -40.85,-168.02 -42.69,-167.48 C-44.54,-166.94 -46.28,-166.25 -47.92,-165.41 C-49.56,-164.56 -51.16,-163.62 -52.71,-162.57 C-54.27,-161.52 -55.78,-160.29 -57.24,-158.9 C-58.71,-157.51 -60.1,-156.06 -61.42,-154.55 L-63.4,-152.3 L-65.52,-150.18 C-66.93,-148.76 -68.09,-147.26 -68.99,-145.67 C-69.89,-144.08 -69.35,-143.16 -67.37,-142.92 C-65.39,-142.67 -63.38,-142.5 -61.34,-142.4 C-59.3,-142.3 -57.29,-142.1 -55.31,-141.82 C-53.33,-141.53 -51.4,-141.24 -49.52,-140.93 C-47.65,-140.63 -45.75,-140.39 -43.82,-140.22 C-41.9,-140.05 -40.02,-139.84 -38.16,-139.59 C-36.31,-139.33 -35.03,-140.15 -34.34,-142.04 C-33.65,-143.92 -33.19,-145.83 -32.96,-147.77 L-48.79,-151.04 L-41.77,-153.54 C-40.06,-154.34 -38.27,-155 -36.39,-155.51 C-34.52,-156.03 -33.42,-155.36 -33.09,-153.51 C-32.76,-151.65 -32.72,-149.75 -32.95,-147.8 C-32.95,-147.79 -32.96,-147.78 -32.96,-147.77M-235.71,-168.91 L-235.79,-168.97 C-235.84,-169.02 -236.12,-170.06 -236.62,-172.1 C-237.13,-174.15 -237.74,-176.01 -238.47,-177.68 C-239.19,-179.36 -240.07,-181 -241.1,-182.61 C-242.14,-184.23 -243.4,-185.7 -244.88,-187.05 C-246.37,-188.4 -247.85,-189.62 -249.31,-190.7 C-250.78,-191.77 -252.55,-192.72 -254.61,-193.52 C-256.68,-194.33 -258.66,-194.94 -260.55,-195.34 C-262.45,-195.74 -264.4,-195.78 -266.41,-195.45 C-268.42,-195.12 -270.35,-194.69 -272.2,-194.15 C-274.05,-193.61 -275.79,-192.92 -277.43,-192.08 C-279.06,-191.24 -280.66,-190.29 -282.22,-189.24 C-283.78,-188.19 -285.29,-186.97 -286.75,-185.57 C-288.21,-184.18 -289.6,-182.73 -290.92,-181.23 L-292.9,-178.97 L-295.02,-176.85 C-296.44,-175.44 -297.59,-173.93 -298.49,-172.34 C-299.39,-170.75 -298.85,-169.83 -296.88,-169.59 C-294.9,-169.35 -292.89,-169.17 -290.85,-169.07 C-288.8,-168.97 -286.79,-168.78 -284.81,-168.49 C-282.83,-168.21 -280.9,-167.91 -279.03,-167.61 C-277.15,-167.3 -275.25,-167.07 -273.33,-166.9 C-271.41,-166.73 -269.52,-166.52 -267.67,-166.26 C-265.81,-166.01 -264.54,-166.82 -263.85,-168.71 C-263.16,-170.59 -262.7,-172.5 -262.46,-174.44 L-278.29,-177.71 L-271.28,-180.22 C-269.56,-181.01 -267.77,-181.67 -265.9,-182.18 C-264.02,-182.7 -262.93,-182.03 -262.6,-180.18 C-262.27,-178.33 -262.22,-176.43 -262.46,-174.47 C-262.46,-174.46 -262.46,-174.45 -262.46,-174.44M-182.18,-111.29 C-179.62,-104.11 -175.92,-98.57 -162.7,-92.93 C-153,-96.55 -148.56,-99.97 -142.13,-109.18M-210.62,-47.27 C-207.03,-38.79 -195.6,-36.05 -187.17,-35.97 C-171.47,-35.85 -168.01,-44.85 -163.81,-61.15 L-162.38,-88.66M-163.86,-60.81 C-164.74,-46.85 -154.5,-36.05 -144.33,-32.79 C-135.34,-31.6 -127.71,-33.66 -121.43,-38.96" fill-rule="evenodd" style="fill:none;stroke:#000000;stroke-linecap:round;stroke-linejoin:round;stroke-width:15;" />
		</g>
	</g>
</svg>