<?xml version="1.0" encoding="UTF-8"?>
<!-- Created with Grafika (https://www.grafika.cc/) -->
<svg xmlns="http://www.w3.org/2000/svg" xmlns:svg="http://www.w3.org/2000/svg" xmlns:xlink="http://www.w3.org/1999/xlink" width="2048" height="1758.89" viewBox="0 0 963.39 827.4" preserveAspectRatio="xMidYMid meet">
	<defs>
		<radialGradient gradientUnits="userSpaceOnUse" gradientTransform="matrix(269.81182861328125, -2.2450790405273438, 1.5074306726455688, 181.16183471679688, 398.4856262207031, 352.9903259277344)" spreadMethod="pad" id="gradient_1" cx="0" cy="0" r="1">
			<stop offset="0.72%" stop-color="#B3A791" stop-opacity="1" />
			<stop offset="100%" stop-color="#877961" stop-opacity="1" />
		</radialGradient>
		<radialGradient gradientUnits="userSpaceOnUse" gradientTransform="matrix(269.81182861328125, -2.2450790405273438, 1.5074306726455688, 181.16183471679688, 398.65185546875, 352.8422546386719)" spreadMethod="pad" id="gradient_2" cx="0" cy="0" r="1">
			<stop offset="0.72%" stop-color="#B3A791" stop-opacity="1" />
			<stop offset="100%" stop-color="#877961" stop-opacity="1" />
		</radialGradient>
		<radialGradient gradientUnits="userSpaceOnUse" gradientTransform="matrix(269.81182861328125, -2.245079278945923, 1.507430911064148, 181.16183471679688, 397.66412353515625, 352.9706115722656)" spreadMethod="pad" id="gradient_3" cx="0" cy="0" r="1">
			<stop offset="0.72%" stop-color="#B3A791" stop-opacity="1" />
			<stop offset="100%" stop-color="#877961" stop-opacity="1" />
		</radialGradient>
	</defs>
	<g transform="matrix(1.1878180503845215, 0.05715671554207802, -0.05715671554207802, 1.1878180503845215, -68.28704833984375, -167.463134765625)">
		<g transform="matrix(0.9998826384544373, -0.015285458415746689, 0.015285458415746689, 0.9998826384544373, -33.85748291015625, -7.593475341796875)">
			<path d="M269.24,477.16 C256.63,489.98 217.91,530.3 246.82,695.24 C260.15,771.35 327.99,819.78 383.4,784.14 C389.75,780.06 411.68,752.73 411.68,752.73 C411.68,752.73 424.05,782.42 447.58,791.56 C470.67,800.54 504.62,789.2 536.47,765.49 C542.19,761.24 610.16,730.57 703.87,760.94 C718.57,765.71 820.68,753.7 833.13,728.27 C845.49,703.03 891.86,673.02 861.82,570.07 C840.66,497.54 783.87,453.87 726.46,438.51 C656.65,419.84 563.7,430.39 554.24,433.63 L269.24,477.16 Z L269.24,477.16 Z" fill-rule="evenodd" style="fill:url(#gradient_1);stroke:#000000;stroke-linecap:round;stroke-linejoin:round;stroke-width:21.02;" />
			<path transform="matrix(0.8405281901359558, -0.02524222992360592, 0.02524222992360592, 0.8405281901359558, 751.1704711914062, 521.0259399414062)" d="M-135.55,275.67 L-135.7,275.65 Q-135.84,275.62 -130.58,272.8 L-125.32,269.98 L-120.85,267.52 Q-116.38,265.06 -111.94,262.32 Q-107.51,259.58 -102.09,255.81 Q-96.68,252.04 -92.92,247.67 Q-89.16,243.31 -85.91,238.21 Q-82.67,233.12 -80.03,228.08 L-77.39,223.04 L-74.97,218.58 Q-72.55,214.11 -68.43,216.86 Q-64.32,219.6 -65.53,224.54 Q-66.74,229.48 -68.53,234.11 Q-70.32,238.74 -72.6,243.03 Q-74.88,247.33 -76.48,252.98 Q-78.09,258.63 -78.68,263.71 Q-79.28,268.8 -79.34,274.01 L-76.05,288.03 L-135.55,275.67 ZM-214.56,276.16 L-213.98,275.23 L-207.29,265.89 L-204.21,262.02 Q-201.14,258.15 -198.37,253.32 L-195.59,248.5 L-190.49,238.62 L-187.75,233.56 Q-185.02,228.49 -181.75,223.81 Q-178.47,219.14 -177,214.53 Q-175.53,209.93 -172.29,205.9 Q-169.05,201.86 -163.96,204.65 Q-158.87,207.43 -160.88,212.51 Q-162.9,217.59 -165.29,221.96 L-167.67,226.33 L-170.33,231.63 Q-172.99,236.94 -174.94,242.73 L-176.89,248.52 L-180.49,257.58 L-182.14,262.58 L-180.48,273.73 L-214.56,276.16 ZM-171.74,149.79 L-171.88,149.85 Q-172.01,149.91 -175.4,154.76 Q-178.8,159.62 -182.31,163.97 L-185.81,168.32 L-188.81,172.06 Q-191.81,175.8 -192.61,181.31 Q-193.4,186.82 -192.64,192.07 Q-191.88,197.33 -187.23,198.57 Q-182.58,199.81 -179.09,196.21 L-175.6,192.61 L-171.82,188.94 Q-168.04,185.27 -164.37,181.29 L-160.7,177.32 L-157.18,173.56 Q-153.65,169.81 -150.99,165.76 Q-148.34,161.72 -146.74,157.05 Q-145.15,152.37 -144.8,147.52 Q-144.45,142.67 -146.92,138.42 Q-149.39,134.16 -152.81,130.33 Q-156.23,126.5 -159.58,130.49 Q-162.93,134.47 -165.32,139.06 L-167.7,143.64 L-170.16,147.9 L-174.99,158.24M-119.88,181.36 Q-123.52,184.51 -125.35,189.13 Q-127.17,193.74 -129.78,198.08 L-132.39,202.41 L-135.11,206.69 Q-137.84,210.98 -139.97,215.69 Q-142.1,220.39 -145.38,224.02 Q-148.66,227.65 -151.44,231.62 Q-154.22,235.59 -153.57,240.62 Q-152.92,245.64 -149.05,249.2 Q-145.17,252.76 -140.35,251.25 Q-135.52,249.73 -130.43,246.04 Q-125.33,242.34 -120.98,238.12 Q-116.63,233.89 -112.93,230.69 Q-109.23,227.5 -105.34,224.66 Q-101.44,221.83 -97.53,218.71 Q-93.63,215.58 -92.18,210.76 Q-90.73,205.94 -92.04,200.64 L-93.36,195.34 L-94.65,190.31 Q-95.95,185.28 -98.55,180.36 Q-101.14,175.43 -105.86,174.49 L-119.88,181.36 ZM-125.35,52.84 L-125.5,52.86 Q-125.64,52.89 -128.55,57.32 Q-131.46,61.75 -132.97,67.34 L-134.49,72.93 L-135.43,77.97 Q-136.38,83.01 -136.68,88.95 L-136.98,94.9 L-137.31,99.77 Q-137.63,104.65 -135.43,110.06 Q-133.23,115.47 -130.05,119.69 L-126.88,123.92 L-123.84,127.94 Q-120.79,131.95 -120.02,137.07 Q-119.25,142.19 -115.56,137.88 Q-111.87,133.56 -111.86,127.63 L-111.84,121.7 L-112.25,111.16 L-111.93,100.32 L-112.07,94.93 Q-112.21,89.55 -113.06,84.14 Q-113.91,78.73 -113.66,73.6 L-113.41,68.47 L-112.7,63.68 Q-112,58.89 -114.27,54.66 L-125.35,52.84 ZM-40.89,149.21 C-41.12,149.23 -43.08,149.8 -46.07,150.88 Q-50.57,152.48 -52.08,157.36 Q-53.58,162.23 -54.62,168.02 Q-55.66,173.81 -57.97,179.32 L-60.29,184.83 L-62.19,189.79 Q-64.1,194.75 -64.52,199.92 Q-64.94,205.09 -60.25,201.92 Q-55.57,198.75 -52.36,194.07 Q-49.15,189.39 -45.53,185.93 Q-41.92,182.47 -38.71,178.83 Q-35.51,175.2 -32.95,170.94 Q-30.38,166.69 -30.07,160.98 Q-29.75,155.28 -30.84,150.3 Q-31.93,145.32 -36.68,145.55 L-40.89,149.21 ZM-90.59,71.56 Q-92.43,76.39 -93.24,81.72 Q-94.05,87.04 -92.67,93.72 Q-91.29,100.4 -87.61,104.49 L-83.93,108.58 L-80.2,112.58 Q-76.47,116.58 -75.32,121.84 L-74.17,127.1 L-73.16,132.64 Q-72.15,138.18 -67.82,140.45 Q-63.49,142.71 -60.69,138.15 Q-57.89,133.59 -56.57,128.71 Q-55.25,123.84 -55.12,118.65 Q-55,113.46 -55.54,108.39 L-56.09,103.31 L-56.88,92.41 L-57.7,87.07 Q-58.51,81.72 -62,77.03 Q-65.5,72.34 -68.22,68.06 C-71.84,62.36 -86.01,59.51 -90.59,71.56 ZM-42.98,49.79 Q-46.61,53.23 -46.3,58.46 Q-45.98,63.7 -43.31,68.63 Q-40.64,73.57 -37.14,77.59 Q-33.63,81.62 -30.71,86.18 Q-27.78,90.75 -25.62,95.18 Q-23.45,99.6 -19.92,104.58 L-16.4,109.56 L-13.65,113.82 Q-10.9,118.08 -8.94,122.78 Q-6.97,127.47 -7.4,133.16 Q-7.83,138.86 -6.54,143.89 Q-5.26,148.92 -0.95,151.88 Q3.36,154.84 6.34,150.27 Q9.33,145.7 11.03,140.57 Q12.72,135.44 12.04,130.2 Q11.35,124.96 9.86,119.5 Q8.38,114.05 8.66,109.04 L8.93,104.03 L9.09,99.22 Q9.24,94.41 5.02,90.87 Q0.8,87.32 -1.09,81.87 L-2.99,76.42 L-4.35,71.05 Q-5.71,65.68 -7.67,61.09 Q-9.63,56.5 -12.47,52.46 Q-15.3,48.42 -19.49,45.56 Q-23.68,42.71 -28.56,43.46 L-38.15,48.02 L-42.98,49.79 ZM35.14,83.92 L35.01,83.88 Q34.87,83.85 30.64,86.1 Q26.41,88.35 26.34,94.18 Q26.26,100.02 27.72,104.89 Q29.17,109.76 32.44,113.51 Q35.71,117.26 35.31,122.19 L34.92,127.13 L34.71,132.12 Q34.51,137.11 33.53,141.97 L32.55,146.82 L31.37,157.77 L31.01,162.94 Q30.65,168.1 31.69,173.02 Q32.73,177.95 37.85,175.96 Q42.98,173.97 47.09,170.68 Q51.2,167.39 52.01,162.4 Q52.82,157.4 53.13,151.77 L53.44,146.14 L54.71,134.73 L55.64,129.29 Q56.56,123.85 56.57,118.75 Q56.58,113.65 55.85,108.69 Q55.13,103.72 53.05,99.15 Q50.96,94.58 49.31,89.55 Q47.66,84.52 42.53,85.04 L35.14,83.92 ZM118.01,124.09 Q117.29,119.12 112.85,120.91 Q108.41,122.7 106.01,128.42 Q103.61,134.14 102.37,139.27 L101.13,144.4 L98.08,154.77 L97.04,159.76 Q95.99,164.76 93.87,169.97 Q91.75,175.18 90.58,180.36 Q89.42,185.54 93.85,188.29 Q98.28,191.05 102.52,188.19 Q106.76,185.32 109.84,180.72 Q112.92,176.12 115,171.57 L117.08,167.03 L119.26,162.37 Q121.44,157.72 120.86,152.66 L120.28,147.61 L119.63,142.81 L117.43,129.45 L118.01,124.09 ZM88.83,9.29 L88.43,9.69 Q88.03,10.1 85.02,6.35 Q82,2.6 77.98,6.78 Q73.96,10.97 73.39,16.39 Q72.81,21.82 73.88,27.31 L74.95,32.81 L75.78,37.87 Q76.62,42.93 76.75,47.73 L76.89,52.54 L76.7,57.68 Q76.51,62.82 75.84,67.59 L75.16,72.36 L74.25,83.79 L72.59,94.76 L71.45,100.71 Q70.3,106.67 73.86,110.18 Q77.42,113.69 79.11,118.31 Q80.79,122.92 82.68,117.89 L84.58,112.85 L88.7,101.33 L92.73,91.48 L95.2,86.45 Q97.66,81.43 98.68,75.96 L99.69,70.5 L100.65,60.24 L101.36,54.81 Q102.07,49.39 101.97,44.36 L101.87,39.33 L102.18,34.12 Q102.49,28.9 100.63,23.8 Q98.77,18.7 96.58,14.16 L85.44,5.35M-113.02,-105.06 L-113.07,-105.17 Q-113.12,-105.28 -112.82,-99.59 Q-112.52,-93.89 -113.94,-87.92 Q-115.37,-81.95 -117.61,-76.39 L-119.86,-70.83 L-122.35,-65.69 Q-124.84,-60.54 -124.54,-55.76 Q-124.23,-50.99 -119.99,-53.43 Q-115.75,-55.88 -112.57,-60.68 Q-109.39,-65.47 -106.06,-68.99 Q-102.74,-72.52 -98.85,-75.38 Q-94.97,-78.23 -91.43,-81.8 Q-87.88,-85.36 -83.62,-87.96 Q-79.36,-90.55 -80.18,-95.26 L-87.51,-103.8M-15.24,-42.01 L-16.88,-36.75 Q-18.51,-31.48 -17.2,-26.72 Q-15.9,-21.95 -13.15,-16.93 L-10.41,-11.91 L-5.37,-0.73 L-1.96,8.65 L-0.13,14.18 Q1.7,19.7 0.53,25.57 Q-0.63,31.45 -2.03,36.1 Q-3.43,40.76 -2.78,46.04 Q-2.13,51.32 0.1,55.57 Q2.33,59.82 8.13,59.46 Q13.93,59.1 18.7,59.46 Q23.47,59.82 28.45,58.56 Q33.44,57.3 35.52,51.81 Q37.59,46.33 38.56,41.63 Q39.52,36.93 41.25,32.3 Q42.99,27.68 43.72,22.52 Q44.45,17.36 43.32,12.32 Q42.19,7.27 39.73,3.19 Q37.27,-0.89 35.44,-5.43 Q33.6,-9.96 34.05,-15.32 Q34.5,-20.68 32.08,-26.01 Q29.66,-31.33 26.29,-35.13 Q22.91,-38.92 18.87,-42.2 Q14.82,-45.47 9.87,-46.94 Q4.93,-48.4 -0.43,-49.87 C-8.99,-48.27 -13.93,-45.65 -15.24,-42.01 ZM-96.79,-56.02 L-97.22,-56.05 Q-97.66,-56.08 -101.57,-50.91 Q-105.48,-45.74 -107.29,-39.33 Q-109.09,-32.92 -108.94,-27.27 Q-108.78,-21.63 -106.83,-15.67 Q-104.87,-9.71 -102.37,-5.02 Q-99.87,-0.32 -100.18,5.82 Q-100.49,11.97 -101.74,18.92 L-102.98,25.86 L-104.22,32.07 Q-105.46,38.27 -101.13,41.06 Q-96.8,43.86 -93.68,40.01 L-90.57,36.16 L-87.16,32.33 Q-83.75,28.5 -78.58,27.47 Q-73.42,26.44 -67.86,24.38 Q-62.3,22.32 -58.97,17.97 Q-55.64,13.62 -54.1,8.86 L-52.56,4.09 L-51.05,-0.6 Q-49.55,-5.3 -49.6,-10.62 Q-49.66,-15.94 -50.42,-20.7 Q-51.19,-25.46 -53,-30.16 Q-54.81,-34.86 -58.33,-38.41 L-61.85,-41.95 L-65.45,-45.84 Q-69.05,-49.73 -72.1,-53.75 Q-75.15,-57.76 -80.16,-58.57 Q-85.16,-59.37 -89.87,-58.4 L-95.08,-56.83M-182.7,-94.77 C-183.6,-94.6 -203.2,-104.42 -210.45,-97.03 C-209.94,-93.77 -190.41,-50.98 -189.85,-47.07 L-185.67,0.82 C-185.11,6.63 -191.98,37.62 -195.81,52.68 L-197.78,62.16 C-209.23,88.81 -192.57,96.54 -179.15,76.23 L-177.48,71.5 C-173.46,61.91 -164.59,37.21 -162.22,29.63 C-160.31,23.68 -157.97,14.28 -157.28,11.06 C-156.78,7.95 -167.21,-36.11 -166.87,-42.37 L-166.62,-47.07 C-166.47,-63.78 -165.81,-90.69 -168.01,-92.59 C-171.59,-95.67 -179.17,-97.23 -184.15,-97.25 L-182.7,-94.77 ZM-269.49,-84.69 C-269.48,-83.5 -262.44,-62.04 -259.57,-54.66 C-258.13,-50.97 -247.89,-22.93 -247.08,-21.09 C-245.16,-16.7 -249.86,-2.88 -249.81,1.09 C-252.96,3.27 -246.68,23.12 -241.52,26.48 C-240.7,33.07 -236.84,46.95 -235.7,50.43 C-231.16,64.34 -209.57,46.93 -213.78,15.27 C-214.31,11.31 -212.62,-29.01 -212.79,-33.16 L-213.05,-39.4 C-215.19,-70.13 -227.34,-98.36 -247.61,-96.66 C-253.89,-96.13 -270.92,-90.97 -274.05,-89.87 L-269.49,-84.69 ZM-333.19,317.75 C-331.78,314.39 -334.55,297.42 -334.92,293.34 L-335.47,287.21 C-336.4,279.63 -339.55,253.5 -336.29,252.7 C-328.91,250.88 -311.12,277.06 -307.82,283.4 C-302.02,294.54 -283.83,290.76 -270.9,282.86 C-261.89,277.35 -273.19,256.64 -278.7,250.39 L-282.72,246.14 C-293.46,234.78 -290.38,207.47 -279.75,217.88 C-277.09,220.48 -263.04,238.23 -261.76,239.75 C-259.56,242.55 -253.33,248.56 -249.65,249.39 C-240.88,251.38 -225.81,225.47 -223.11,218.67 C-218.28,206.52 -231.85,190.92 -245.82,182.59 C-253.37,178.08 -335.32,172.11 -344.09,162.43 C-352.22,144.89 -298.85,126.93 -292.64,128.94 C-276.5,134.14 -222.15,160.22 -217.18,160.37 C-202.27,160.82 -208.91,187.34 -215.83,199.92 C-217.17,202.35 -222.35,217.65 -223.57,221.09 C-224.8,224.54 -229.05,233.04 -230.88,236.43 L-233.59,242.03 C-235.85,246.69 -260.37,270.83 -266.15,276.64M-600.33,184.85 C-602.12,181.76 -604.61,184.61 -600.56,186.58 C-596.52,188.55 -585.94,189.63 -577.25,191.1 C-568.57,192.57 -561.76,194.41 -553.8,193.33 C-545.83,192.25 -536.7,188.25 -529.78,189.56 C-522.85,190.87 -518.14,197.48 -522.11,205.35 C-526.08,213.21 -538.72,222.32 -548.54,227.72 C-558.37,233.12 -565.38,234.8 -572.79,234.84 C-580.2,234.88 -588.02,233.29 -586.58,241.18 C-585.13,249.06 -574.43,266.43 -564.78,271.83 C-555.13,277.23 -546.54,270.66 -538.16,264.77 C-529.78,258.88 -521.62,253.68 -517.68,248.2 C-513.74,242.71 -514.02,236.96 -508.6,233.3 C-503.17,229.64 -492.03,228.08 -486.09,231.67 C-480.15,235.25 -479.4,243.99 -481.12,251.74 C-482.85,259.5 -487.04,266.28 -493.14,272.85 C-499.25,279.43 -507.28,285.8 -517.47,289.68 C-527.67,293.56 -540.03,294.94 -536.49,301 C-532.96,307.07 -513.52,317.81 -501.61,315.5 C-489.69,313.19 -485.28,297.83 -478.91,286.66 C-472.53,275.48 -464.19,268.49 -459.96,260.24 C-455.73,252 -455.62,242.49 -451.45,243.38 C-447.27,244.26 -439.03,255.53 -438.93,265.76 C-438.83,275.99 -446.86,285.19 -452.95,290.96 C-459.04,296.73 -463.2,299.08 -462.77,304.69 C-462.34,310.3 -457.33,319.18 -473.94,320.41 C-490.55,321.63 -528.79,315.21 -552.78,294.86 C-576.78,274.51 -586.55,240.24 -591.98,218.59 C-597.42,196.95 -598.53,187.93 -600.33,184.85 ZM-610.08,126.07 Q-586.28,111.92 -562.71,116.9 C-539.13,121.87 -520.49,137.98 -507.2,138.08 C-493.91,138.18 -468.55,127.61 -467.05,109.7 C-465.55,91.8 -452.28,63.74 -483.3,63.39 C-505.88,70.2 -530.63,39.53 -566.46,49.14 C-599.5,57.72 -604.41,83.49 -613.25,92.67 L-610.08,126.07 ZM-610.53,19.95 C-602.1,31.47 -571.98,24.07 -544.26,27.61 C-516.54,31.16 -491.22,45.65 -479.87,42.99 C-468.52,40.33 -471.15,20.51 -488.45,5.98 C-505.75,-8.55 -537.73,-17.8 -559.31,-25.08 C-580.89,-32.37 -592.06,-37.69 -603.29,-42.96 C-605.71,-21.99 -618.97,8.44 -610.53,19.95 ZM-213.49,139.85 C-227.31,133.63 -264.19,109.32 -292.21,105.31 C-320.22,101.31 -339.35,117.6 -352.26,112.86 C-376.85,103.82 -387.83,71.84 -381.39,57.41 C-360.32,36.46 -345.04,48.62 -307.31,55.92 C-269.79,68.8 -225.54,82.89 -206.62,131.37 C-208.91,134.2 -199.67,146.07 -213.49,139.85 ZM-238.41,-5.72 C-251.43,-12.11 -287.46,-10.6 -308.62,-9.16 C-329.77,-7.73 -336.03,-6.38 -333.02,2.83 C-330,12.03 -317.71,29.08 -299.6,34.12 C-281.49,39.16 -257.57,32.19 -233.88,25.3 C-235.39,14.96 -225.39,0.66 -238.41,-5.72 Z" fill-rule="evenodd" style="fill:#ffffff00;" />
			<path d="M866.15,689.27 C818.23,738 726.17,662.42 706.51,706.58 C690.51,742.5 730.85,740.67 813.97,755.22 C889.57,768.46 898.74,671.01 873.89,658.85 L866.15,689.27 L866.15,689.27 Z" fill-rule="evenodd" style="fill:url(#gradient_2);stroke:#000000;stroke-linecap:round;stroke-linejoin:round;stroke-width:21.02;" />
			<path transform="matrix(0.7058506011962891, -0.04243362322449684, 0.04243362322449684, 0.7058506011962891, 755.0256958007812, 560.2474975585938)" d="M147.74,205.07 L147.5,205.26 Q147.25,205.46 143.18,208.14 Q139.12,210.81 139.93,216.46 Q140.74,222.1 143.72,226.86 Q146.69,231.62 150.07,228.19 Q153.45,224.75 155.32,220.13 Q157.18,215.51 156.35,210.71 L151.64,197.24M115.92,227.76 L115.52,227.84 Q115.12,227.92 115.38,234.05 Q115.64,240.19 117.48,245.6 Q119.33,251.02 121.82,255.7 Q124.31,260.38 128.63,263.67 Q132.96,266.95 134.76,262.12 Q136.55,257.28 135.94,251.94 Q135.32,246.6 133,241.52 Q130.68,236.43 127.82,232.02 Q124.96,227.61 120.28,228.85 L115.05,230.77 L115.92,227.76 ZM82.56,231.38 L82.45,231.44 Q82.34,231.5 78.95,234.88 Q75.56,238.25 74.86,243.59 Q74.16,248.93 75.23,255.76 L76.3,262.58 L77.5,268.8 Q78.71,275.03 80.35,280.1 Q81.99,285.18 84.87,280.79 Q87.76,276.39 89.69,270.33 Q91.63,264.28 92.64,259.33 L93.64,254.37 L94.56,248.84 Q95.47,243.3 94.64,238.41 Q93.81,233.52 88.96,232.8 L83.4,232.52M36.08,220.51 L35.59,220.74 Q35.11,220.96 33.27,226.22 Q31.44,231.49 30.65,237.12 Q29.86,242.75 30.27,249.9 L30.68,257.04 L31.03,262.16 Q31.38,267.29 35.74,264.83 Q40.1,262.37 41.14,256.7 L42.18,251.03 L43.11,246.15 Q44.04,241.27 45.69,236.69 Q47.33,232.11 45.44,227.7 L42.37,222.07M-8.08,220.1 L-8.2,220.17 Q-8.33,220.25 -9.09,226.03 Q-9.86,231.81 -9.29,237.44 L-8.72,243.07 L-7.83,247.78 Q-6.94,252.48 -5.57,257.09 Q-4.21,261.69 -0.94,258.05 Q2.33,254.4 1.71,248.32 L1.09,242.24 L1.04,236.49 Q0.99,230.74 2.09,226.03 Q3.18,221.32 -0.49,218.17 L-8.6,217.01" fill-rule="evenodd" style="fill:#ffffff00;" />
			<path transform="matrix(0.8405282497406006, -0.02524222806096077, 0.02524222806096077, 0.8405282497406006, 745.5751953125, 519.1957397460938)" d="M-129.35,-112.15 Q-147.13,173.44 -141.88,169.26 C-136.64,165.08 -80.84,-106.12 -80.82,-104.67 L-129.35,-112.15 ZM-21.01,-100.02 Q-71.36,154.81 -70.54,157.88 L32.88,-81.94 L-21.01,-100.02 ZM75,-40.65 L-12.67,157.22 L101.05,-9.44 L75,-40.65 ZM-606.37,7.32 L-473.13,44.11 L-614.84,73.5 L-606.37,7.32 ZM-604.71,127.38 L-481.18,135.02 L-599.6,206.69 L-604.71,127.38 ZM-568.6,256 L-499.9,217.66 L-524.6,302.29 L-568.6,256 ZM-299.12,300.67 L-319.66,222.89 L-248.41,274.33 L-299.12,300.67 ZM-230,232.75 L-292.9,180.46 L-206.59,194.97 L-230,232.75 ZM-203.49,161.1 L-329.1,104.26 L-202.21,119.32 L-203.49,161.1 ZM-2.96,250.36 L21.15,217.46 L32.22,267.11 L-2.96,250.36 ZM87.12,273.25 L101.76,219.34 L121.86,269.62 L87.12,273.25 Z" fill-rule="evenodd" style="fill:#ffffff00;" />
			<path d="M518.01,776.31 C550.52,744.02 586.14,677.03 576.86,634M462.16,707.62 C434.15,707.5 416.73,723.25 409.88,754.85 C408.38,724.25 400.3,707.57 356.26,700.6" fill-rule="evenodd" style="fill:none;stroke:#000000;stroke-linecap:round;stroke-linejoin:round;stroke-width:21.02;" />
			<path d="M269.24,477.16 C256.63,489.98 217.91,530.3 246.82,695.24 C260.15,771.35 327.99,819.78 383.4,784.14 C389.75,780.06 411.68,752.73 411.68,752.73 C411.68,752.73 424.05,782.42 447.58,791.56 C470.67,800.54 504.62,789.2 536.47,765.49 C542.19,761.24 610.16,730.57 703.87,760.94 C718.57,765.71 820.68,753.7 833.13,728.27 C845.49,703.03 891.86,673.02 861.82,570.07 C840.66,497.54 783.87,453.87 726.46,438.51 C656.65,419.84 563.7,430.39 554.24,433.63 L269.24,477.16 Z L269.24,477.16 Z" fill-rule="evenodd" style="fill:none;stroke:#000000;stroke-linecap:round;stroke-linejoin:round;stroke-width:21.02;" />
			<path d="M866.15,689.27 C818.23,738 726.17,662.42 706.51,706.58 C690.51,742.5 730.85,740.67 813.97,755.22 C889.57,768.46 898.74,671.01 873.89,658.85 L866.15,689.27 L866.15,689.27 Z" fill-rule="evenodd" style="fill:none;stroke:#000000;stroke-linecap:round;stroke-linejoin:round;stroke-width:21.02;" />
		</g>
		<g transform="matrix(0.9998826384544373, -0.015285451896488667, 0.015285451896488667, 0.9998826384544373, -23.793725967407227, -20.01740264892578)">
			<path d="M648.87,276.51 C642.96,289.21 655.25,262.82 648.87,276.51 ZM521.71,212.02 C538.29,202.44 582.95,195.21 605.55,191.87 C626.78,188.74 661.57,189.83 668.79,203.94 C676.01,218.05 658.44,255.97 648.87,276.51 C640.01,295.55 621.05,316.1 611.41,327.2 C605.76,333.7 595.93,339.97 591.02,343.11 L564.57,293.09 L521.71,212.02 ZM279.19,495.46 C261.88,486.21 215.53,456.22 208.32,436.62 C192.23,396.36 207.16,308.72 247.84,253.69 C269.69,224.13 293.15,194.33 338.83,186.82 C359.35,182.18 370.49,179.54 399.1,181.31 C459.69,179.05 510.41,192.21 550.77,249 C573.12,278.19 585.64,328.46 592.73,358.84 C598.22,382.34 600.54,412.29 593.33,431.24 C586.2,449.99 551.79,483.24 527.52,498.44 C488.74,524.02 432.47,538.45 409.02,537.15 C382.4,536.81 323.27,523.49 279.19,495.46 ZM277.09,218.63 C260.35,209.32 219.8,200.85 197.15,197.89 C159.1,193.65 134.81,198.96 129.09,210.6 C122.11,224.83 140.31,262.46 150.21,282.84 C164.83,312.92 199.6,332.43 209.53,338.54 L277.09,218.63 Z" fill-rule="evenodd" style="fill:url(#gradient_3);" />
			<path transform="matrix(0.8405282497406006, -0.025242237374186516, 0.025242237374186516, 0.8405282497406006, 727.7315673828125, 314.05975341796875)" d="M-590.97,35.95 L-616.24,25.83 Q-559.35,45.54 -550.42,55.3 C-541.48,65.06 -511.19,42.28 -528.52,14.19 C-545.85,-13.89 -554.81,-10.54 -572.25,-12.6 C-589.7,-14.65 -599.84,-41.36 -607.86,-37.31 Q-615.88,-33.26 -617.87,24.75 L-619.49,24.87 L-590.97,35.95 ZM-581.68,-71.94 L-579.3,-73.83 L-551.26,-55.9 L-531.63,-8.9 Q-514.09,11.54 -504.16,6.79 C-494.22,2.03 -487.7,-24.1 -491.55,-41.77 C-495.41,-59.44 -506.26,-69.04 -519.57,-86.38 C-532.88,-103.72 -531.71,-128.01 -539.98,-123.99 L-581.68,-71.94 ZM-484.66,-155.15 L-483.46,-155.49 Q-469.39,-119.79 -465.89,-102.64 C-464.99,-98.22 -455.92,-82.06 -453.67,-77.5 C-449.11,-68.27 -445.52,-56.55 -447.41,-38.26 C-451.25,-1.07 -466.99,12.15 -451.77,28.65 C-436.54,45.15 -431.92,15.18 -434.62,-2.7 C-437.41,-21.2 -425.95,-57.1 -423.9,-92.17 C-421.98,-124.86 -429.51,-157.56 -430.52,-155.46 L-484.66,-155.15 ZM-405.28,-170.76 L-406.91,-171.29 L-403.71,-106.86 Q-406.15,-90.55 -401.21,-63.94 C-396.26,-37.32 -390.87,-35.46 -394.97,-5.12 C-399.08,25.21 -403.2,23.85 -396.95,47.32 C-390.7,70.78 -369.89,66.16 -371.5,31.86 C-373.1,-2.43 -368.19,-17.6 -374.82,-43.9 C-379.51,-62.49 -382.67,-115.31 -383.04,-135.05 C-383.4,-154.79 -374.05,-166.43 -374.53,-170.52 L-405.28,-170.76 ZM-331.5,-163.02 L-331.88,-162.85 L-351.5,-114.7 Q-355.29,-94.81 -353.87,-63.67 C-352.46,-32.53 -356.04,-48.19 -354.84,-14.54 C-353.64,19.12 -344.9,38.4 -337.27,43.99 C-329.65,49.57 -321.72,50.19 -324.11,19.2 C-326.49,-11.79 -327.11,-19.5 -325.34,-34.71 C-323.57,-49.91 -330.59,-56.75 -327.82,-80.69 C-325.05,-104.62 -332.75,-104.93 -321.09,-126.56 C-309.43,-148.19 -317.6,-142.53 -238.86,-134.87 L-331.5,-163.02 ZM-251.03,-114.82 Q-264.25,-79.28 -269.56,-69.35 C-274.88,-59.41 -285.94,-52.25 -286.88,-29.98 C-287.82,-7.7 -292.39,10.96 -280.24,17.2 C-268.09,23.45 -269.94,26.77 -259.33,10.26 C-248.71,-6.26 -255.32,1.3 -246.78,-26.55 C-238.23,-54.39 -227.18,-64.62 -219.16,-80.33 C-213.63,-91.18 -230.16,-95.98 -251.03,-114.82 ZM-181.55,-1.83 Q-202.44,9.95 -219.35,24.81 C-236.25,39.68 -242.41,48.85 -236.1,55.43 C-229.78,62.01 -217.82,64.08 -203.21,57.01 C-188.61,49.94 -183.69,41.57 -179.7,35.72 C-175.71,29.86 -173.34,21.33 -170.33,17.58 L-181.55,-1.83 ZM-623.8,126.51 L-622.8,127.91 Q-603.43,119.87 -582.89,122.13 C-562.34,124.39 -549.75,116.71 -535.48,128.07 C-521.21,139.43 -511.1,148.12 -524.65,156.91 C-538.2,165.7 -564.16,161.05 -570.54,166.6 C-576.93,172.16 -610.78,158.24 -614.71,154.09 L-623.8,126.51 ZM-177.04,150.72 L-177.11,150.39 Q-195.22,138.13 -212.21,129.68 C-229.2,121.23 -246.59,104.15 -264.02,116.55 C-275.64,124.83 -255.86,146.24 -245.41,153.92 C-234.96,161.61 -203.1,170.39 -196.09,178.17 Q-189.08,185.94 -208.11,191.02 L-177.04,150.72 ZM-524.58,205.43 Q-505.46,182.76 -495.9,180.21 C-486.35,177.66 -457.69,165.29 -463.65,183.26 C-469.61,201.23 -469.3,212.43 -472.99,221.4 L-524.58,205.43 ZM-306.02,230.96 Q-315.02,208 -314.48,199.54 C-313.94,191.08 -318.73,171.28 -315.62,163.83 C-312.51,156.39 -292.83,164.68 -283.76,168.53 C-274.68,172.39 -269.1,192.12 -264.19,201.28 C-259.27,210.43 -261.58,230.75 -270.03,233.51 L-306.02,230.96 ZM-194.59,-81.19 Z" fill-rule="evenodd" style="fill:#ffffff00;" />
			<path transform="matrix(0.8405282497406006, -0.025242237374186516, 0.025242237374186516, 0.8405282497406006, 574.7078247070312, 296.82196044921875)" d="M-293.34,-127.86 L-250.24,15.81 L-248.49,-134.59 L-216.85,-144.33 L-205.68,35.31 L-176.27,-144.88 L-152.34,-146.73 L-160.96,31.85 L-112.12,-132.96 L-145.69,-147.25 L-235.68,-153.84 L-293.34,-127.86 ZM10.48,75.8 L-31.31,93.36 L20.14,104.53 L18.47,126.23 L-71.67,148.14 L18.16,153.55 L-1.42,186.88 L-68.89,192.21 L-25.56,211.74 L21.79,174.91 L27.31,117.3 L10.48,75.8 ZM-427.72,21.61 L-383.49,56.38 L-432.53,58.73 L-438.49,88.45 L-379.45,96.46 L-437.22,118.05 L-433.26,139.5 L-357.3,141.1 L-424.8,177.24 L-446.46,124.77 L-443.91,66.57 L-427.72,21.61 Z" fill-rule="evenodd" style="fill:#ffffff00;" />
			<path transform="matrix(0.8405281901359558, -0.025242235511541367, 0.025242235511541367, 0.8405281901359558, 556.4093627929688, 495.3732604980469)" d="M-34.74,-144.96 L-34.82,-145.02 C-34.88,-145.05 -35.3,-146.05 -36.08,-148 C-36.87,-149.95 -37.74,-151.71 -38.69,-153.27 C-39.64,-154.83 -40.73,-156.34 -41.98,-157.79 C-43.23,-159.24 -44.69,-160.53 -46.35,-161.66 C-48.01,-162.79 -49.64,-163.78 -51.24,-164.65 C-52.84,-165.51 -54.72,-166.2 -56.88,-166.71 C-59.04,-167.22 -61.08,-167.55 -63.01,-167.68 C-64.95,-167.82 -66.89,-167.58 -68.83,-166.98 C-70.78,-166.37 -72.63,-165.67 -74.38,-164.88 C-76.14,-164.09 -77.77,-163.17 -79.27,-162.1 C-80.77,-161.04 -82.22,-159.88 -83.62,-158.62 C-85.02,-157.37 -86.34,-155.95 -87.6,-154.36 C-88.85,-152.78 -90.03,-151.15 -91.13,-149.48 L-92.77,-146.97 L-94.58,-144.57 C-95.78,-142.98 -96.72,-141.33 -97.39,-139.63 C-98.05,-137.93 -97.39,-137.09 -95.4,-137.13 C-93.41,-137.16 -91.4,-137.27 -89.36,-137.45 C-87.32,-137.64 -85.3,-137.72 -83.3,-137.72 C-81.3,-137.71 -79.35,-137.69 -77.45,-137.65 C-75.55,-137.61 -73.64,-137.64 -71.71,-137.74 C-69.78,-137.84 -67.88,-137.89 -66.01,-137.9 C-64.14,-137.9 -62.99,-138.89 -62.57,-140.86 C-62.15,-142.81 -61.96,-144.77 -62,-146.72 L-78.13,-147.75 L-71.53,-151.21 C-69.95,-152.24 -68.26,-153.14 -66.48,-153.91 C-64.69,-154.68 -63.51,-154.17 -62.93,-152.38 C-62.35,-150.6 -62.04,-148.72 -62,-146.76 C-62,-146.74 -62,-146.73 -62,-146.72M-265.72,-139.44 L-265.81,-139.49 C-265.86,-139.53 -266.28,-140.52 -267.07,-142.47 C-267.85,-144.43 -268.72,-146.18 -269.67,-147.74 C-270.62,-149.3 -271.72,-150.81 -272.97,-152.26 C-274.21,-153.71 -275.67,-155 -277.33,-156.13 C-278.99,-157.26 -280.62,-158.26 -282.22,-159.12 C-283.83,-159.98 -285.71,-160.67 -287.86,-161.18 C-290.02,-161.69 -292.07,-162.02 -294,-162.15 C-295.93,-162.29 -297.87,-162.06 -299.82,-161.45 C-301.76,-160.84 -303.61,-160.14 -305.37,-159.36 C-307.12,-158.57 -308.75,-157.64 -310.26,-156.58 C-311.76,-155.51 -313.21,-154.35 -314.6,-153.1 C-316,-151.84 -317.33,-150.42 -318.58,-148.84 C-319.84,-147.25 -321.01,-145.63 -322.11,-143.95 L-323.75,-141.44 L-325.56,-139.05 C-326.76,-137.45 -327.7,-135.8 -328.37,-134.1 C-329.04,-132.4 -328.38,-131.56 -326.38,-131.6 C-324.39,-131.63 -322.38,-131.74 -320.34,-131.93 C-318.31,-132.11 -316.29,-132.2 -314.29,-132.19 C-312.28,-132.18 -310.33,-132.16 -308.43,-132.12 C-306.53,-132.08 -304.62,-132.11 -302.69,-132.21 C-300.77,-132.31 -298.87,-132.36 -297,-132.37 C-295.12,-132.38 -293.98,-133.36 -293.55,-135.33 C-293.14,-137.28 -292.95,-139.24 -292.98,-141.19 L-309.11,-142.23 L-302.52,-145.69 C-300.93,-146.71 -299.24,-147.61 -297.46,-148.38 C-295.68,-149.15 -294.5,-148.64 -293.91,-146.86 C-293.33,-145.07 -293.02,-143.19 -292.98,-141.23 C-292.98,-141.21 -292.98,-141.2 -292.98,-141.19M-204.7,-89.83 C-201.16,-83.08 -196.72,-78.1 -182.84,-74.36 C-173.75,-79.29 -169.82,-83.3 -164.73,-93.31M-223.95,-22.47 C-219.21,-14.57 -207.51,-13.45 -199.15,-14.55 C-183.59,-16.62 -181.41,-26.01 -179.52,-42.74 L-181.93,-70.18M-179.52,-42.39 C-178.45,-28.45 -166.81,-19.17 -156.28,-17.36 C-147.22,-17.44 -139.95,-20.53 -134.47,-26.66" fill-rule="evenodd" style="fill:none;stroke:#000000;stroke-linecap:round;stroke-linejoin:round;stroke-width:15;" />
			<path d="M605.55,191.87 C626.78,188.74 661.57,189.83 668.79,203.94 C676.01,218.05 658.44,255.97 648.87,276.51 C640.01,295.55 621.05,316.1 611.41,327.2 C605.76,333.7 595.93,339.97 591.02,343.11M521.71,212.02 C538.29,202.44 582.95,195.21 605.55,191.87 C626.78,188.74 661.57,189.83 668.79,203.94 C676.01,218.05 658.44,255.97 648.87,276.51 C640.01,295.55 621.05,316.1 611.41,327.2 C605.76,333.7 595.93,339.97 591.02,343.11M279.19,495.46 C261.88,486.21 215.53,456.22 208.32,436.62 C192.23,396.36 207.16,308.72 247.84,253.69 C269.69,224.13 293.15,194.33 338.83,186.82 C359.35,182.18 370.49,179.54 399.1,181.31 C459.69,179.05 510.41,192.21 550.77,249 C573.12,278.19 585.64,328.46 592.73,358.84 C598.22,382.34 600.54,412.29 593.33,431.24 C586.2,449.99 551.79,483.24 527.52,498.44 C488.74,524.02 432.47,538.45 409.02,537.15 C382.4,536.81 323.27,523.49 279.19,495.46 ZM277.09,218.63 C260.35,209.32 219.8,200.85 197.15,197.89 C159.1,193.65 134.81,198.96 129.09,210.6 C122.11,224.83 140.31,262.46 150.21,282.84 C164.83,312.92 199.6,332.43 209.53,338.54" fill-rule="evenodd" style="fill:none;stroke:#000000;stroke-linecap:round;stroke-linejoin:round;stroke-width:21.02;" />
		</g>
	</g>
</svg>