<?xml version="1.0" encoding="UTF-8"?>
<!-- Created with Grafika (https://www.grafika.cc/) -->
<svg xmlns="http://www.w3.org/2000/svg" xmlns:svg="http://www.w3.org/2000/svg" xmlns:xlink="http://www.w3.org/1999/xlink" width="2048" height="2047.97" viewBox="0 0 960 960" preserveAspectRatio="xMidYMid meet">
	<defs>
		<clipPath id="mask_1">
			<rect x="-480" y="-480" width="960" height="960" />
		</clipPath>
		<radialGradient gradientUnits="userSpaceOnUse" gradientTransform="matrix(269.8117980957031, -2.245077610015869, 1.507429838180542, 181.1618194580078, 398.09088134765625, 352.2860107421875)" spreadMethod="pad" id="gradient_1" cx="0" cy="0" r="1">
			<stop offset="0.72%" stop-color="#7F6029" stop-opacity="1" />
			<stop offset="100%" stop-color="#4F3A1A" stop-opacity="1" />
		</radialGradient>
		<radialGradient gradientUnits="userSpaceOnUse" gradientTransform="matrix(269.8117980957031, -2.245077610015869, 1.507429838180542, 181.1618194580078, 398.25714111328125, 352.137939453125)" spreadMethod="pad" id="gradient_2" cx="0" cy="0" r="1">
			<stop offset="0.72%" stop-color="#7F6029" stop-opacity="1" />
			<stop offset="100%" stop-color="#4F3A1A" stop-opacity="1" />
		</radialGradient>
		<radialGradient gradientUnits="userSpaceOnUse" gradientTransform="matrix(269.8117980957031, -2.245077610015869, 1.507429838180542, 181.1618194580078, 398.5992126464844, 339.24755859375)" spreadMethod="pad" id="gradient_3" cx="0" cy="0" r="1">
			<stop offset="0.72%" stop-color="#7F6029" stop-opacity="1" />
			<stop offset="100%" stop-color="#4F3A1A" stop-opacity="1" />
		</radialGradient>
	</defs>
	<g transform="matrix(1, 0, 0, 1, -164.8004150390625, 74.190185546875)">
		<g transform="matrix(1, 0, 0, 1, 644.8004150390625, 405.809814453125)" clip-path="url(#mask_1)">
			<g transform="matrix(1.1885524988174438, 0.03899368271231651, -0.03899368271231651, 1.1885524988174438, -605.6771240234375, -511.3181457519531)">
				<g transform="matrix(0.9999998807907104, -0.000000007147677116847717, 0.000000007147677116847717, 0.9999998807907104, 3.67350172996521, 6.377660274505615)">
					<path d="M268.84,476.46 C256.24,489.28 217.52,529.6 246.42,694.54 C259.76,770.65 327.6,819.07 383.01,783.44 C389.35,779.36 411.28,752.02 411.28,752.02 C411.28,752.02 423.65,781.71 447.18,790.86 C470.27,799.83 504.23,788.5 536.08,764.79 C541.8,760.53 609.76,729.86 703.48,760.24 C718.17,765 820.28,753 832.73,727.57 C845.1,702.32 891.47,672.32 861.43,569.37 C840.27,496.84 783.48,453.17 726.07,437.81 C656.25,419.13 563.3,429.69 553.85,432.92 L268.84,476.46 Z L268.84,476.46 Z" fill-rule="evenodd" style="fill:url(#gradient_1);stroke:#000000;stroke-linecap:round;stroke-linejoin:round;stroke-width:21.02;" />
					<path transform="matrix(0.8405283093452454, -0.025242233648896217, 0.025242233648896217, 0.8405283093452454, 743.3908081054688, 510.5252685546875)" d="M-135.55,275.67 L-135.7,275.65 Q-135.84,275.62 -130.58,272.8 L-125.32,269.98 L-120.85,267.52 Q-116.38,265.06 -111.94,262.32 Q-107.51,259.58 -102.09,255.81 Q-96.68,252.04 -92.92,247.67 Q-89.16,243.31 -85.91,238.21 Q-82.67,233.12 -80.03,228.08 L-77.39,223.04 L-74.97,218.58 Q-72.55,214.11 -68.43,216.86 Q-64.32,219.6 -65.53,224.54 Q-66.74,229.48 -68.53,234.11 Q-70.32,238.74 -72.6,243.03 Q-74.88,247.33 -76.48,252.98 Q-78.09,258.63 -78.68,263.71 Q-79.28,268.8 -79.34,274.01 L-76.05,288.03 L-135.55,275.67 ZM-214.56,276.16 L-213.98,275.23 L-207.29,265.89 L-204.21,262.02 Q-201.14,258.14 -198.37,253.32 L-195.59,248.5 L-190.49,238.62 L-187.75,233.56 Q-185.02,228.49 -181.75,223.81 Q-178.47,219.13 -177,214.53 Q-175.53,209.93 -172.29,205.9 Q-169.05,201.86 -163.96,204.64 Q-158.87,207.43 -160.88,212.51 Q-162.9,217.59 -165.29,221.96 L-167.67,226.33 L-170.33,231.63 Q-172.99,236.94 -174.94,242.73 L-176.89,248.52 L-180.49,257.58 L-182.14,262.58 L-180.48,273.73 L-214.56,276.16 ZM-171.74,149.79 L-171.88,149.85 Q-172.01,149.91 -175.4,154.76 Q-178.8,159.61 -182.31,163.97 L-185.81,168.32 L-188.81,172.06 Q-191.81,175.8 -192.61,181.31 Q-193.4,186.82 -192.64,192.07 Q-191.88,197.33 -187.23,198.57 Q-182.58,199.81 -179.09,196.21 L-175.6,192.61 L-171.82,188.94 Q-168.04,185.27 -164.37,181.29 L-160.7,177.32 L-157.18,173.56 Q-153.65,169.81 -150.99,165.76 Q-148.34,161.72 -146.74,157.05 Q-145.15,152.37 -144.8,147.52 Q-144.45,142.67 -146.92,138.42 Q-149.39,134.16 -152.81,130.33 Q-156.23,126.5 -159.58,130.49 Q-162.93,134.47 -165.32,139.06 L-167.7,143.64 L-170.16,147.9 L-174.99,158.24M-119.88,181.36 Q-123.52,184.51 -125.35,189.13 Q-127.17,193.74 -129.78,198.08 L-132.39,202.41 L-135.11,206.69 Q-137.84,210.98 -139.97,215.68 Q-142.1,220.39 -145.38,224.02 Q-148.66,227.65 -151.44,231.62 Q-154.22,235.59 -153.57,240.62 Q-152.92,245.64 -149.05,249.2 Q-145.17,252.76 -140.35,251.25 Q-135.52,249.73 -130.43,246.04 Q-125.33,242.34 -120.98,238.12 Q-116.63,233.89 -112.93,230.69 Q-109.23,227.5 -105.34,224.66 Q-101.44,221.83 -97.53,218.71 Q-93.63,215.58 -92.18,210.76 Q-90.73,205.94 -92.04,200.64 L-93.36,195.34 L-94.65,190.31 Q-95.95,185.28 -98.55,180.36 Q-101.14,175.43 -105.86,174.49 L-119.88,181.36 ZM-125.35,52.84 L-125.5,52.86 Q-125.64,52.89 -128.55,57.32 Q-131.46,61.75 -132.97,67.34 L-134.49,72.93 L-135.43,77.97 Q-136.38,83.01 -136.68,88.95 L-136.98,94.9 L-137.31,99.77 Q-137.63,104.65 -135.43,110.06 Q-133.23,115.47 -130.05,119.69 L-126.88,123.92 L-123.84,127.94 Q-120.79,131.95 -120.02,137.07 Q-119.25,142.19 -115.56,137.88 Q-111.87,133.56 -111.86,127.63 L-111.84,121.7 L-112.25,111.16 L-111.93,100.32 L-112.07,94.93 Q-112.21,89.55 -113.06,84.14 Q-113.91,78.73 -113.66,73.6 L-113.41,68.47 L-112.7,63.68 Q-112,58.89 -114.27,54.66 L-125.35,52.84 ZM-40.89,149.21 C-41.12,149.23 -43.08,149.8 -46.07,150.88 Q-50.57,152.48 -52.08,157.36 Q-53.58,162.23 -54.62,168.02 Q-55.66,173.81 -57.97,179.32 L-60.29,184.83 L-62.19,189.79 Q-64.1,194.75 -64.52,199.92 Q-64.94,205.09 -60.25,201.92 Q-55.57,198.75 -52.36,194.07 Q-49.15,189.39 -45.53,185.93 Q-41.92,182.47 -38.71,178.83 Q-35.51,175.2 -32.95,170.94 Q-30.38,166.69 -30.07,160.98 Q-29.75,155.28 -30.84,150.3 Q-31.93,145.31 -36.68,145.55 L-40.89,149.21 ZM-90.59,71.56 Q-92.43,76.39 -93.24,81.72 Q-94.05,87.04 -92.67,93.72 Q-91.29,100.4 -87.61,104.49 L-83.93,108.58 L-80.2,112.58 Q-76.47,116.58 -75.32,121.84 L-74.17,127.1 L-73.16,132.64 Q-72.15,138.18 -67.82,140.45 Q-63.49,142.71 -60.69,138.15 Q-57.89,133.59 -56.57,128.71 Q-55.25,123.84 -55.12,118.65 Q-55,113.46 -55.54,108.39 L-56.09,103.31 L-56.88,92.41 L-57.7,87.07 Q-58.51,81.72 -62,77.03 Q-65.5,72.34 -68.22,68.06 C-71.84,62.36 -86.01,59.51 -90.59,71.56 ZM-42.98,49.79 Q-46.61,53.23 -46.3,58.46 Q-45.98,63.7 -43.31,68.63 Q-40.64,73.57 -37.14,77.59 Q-33.63,81.62 -30.71,86.18 Q-27.78,90.75 -25.62,95.18 Q-23.45,99.6 -19.92,104.58 L-16.4,109.56 L-13.65,113.82 Q-10.9,118.08 -8.94,122.78 Q-6.97,127.47 -7.4,133.16 Q-7.83,138.85 -6.54,143.89 Q-5.26,148.92 -0.95,151.88 Q3.36,154.84 6.34,150.27 Q9.33,145.7 11.03,140.57 Q12.72,135.44 12.04,130.2 Q11.35,124.96 9.86,119.5 Q8.38,114.05 8.66,109.04 L8.93,104.03 L9.09,99.22 Q9.24,94.41 5.02,90.87 Q0.8,87.32 -1.09,81.87 L-2.99,76.42 L-4.35,71.05 Q-5.71,65.68 -7.67,61.09 Q-9.63,56.5 -12.47,52.46 Q-15.3,48.42 -19.49,45.56 Q-23.68,42.71 -28.56,43.46 L-38.15,48.02 L-42.98,49.79 ZM35.14,83.92 L35.01,83.88 Q34.87,83.85 30.64,86.1 Q26.41,88.35 26.34,94.18 Q26.26,100.02 27.72,104.89 Q29.17,109.76 32.44,113.51 Q35.71,117.26 35.31,122.19 L34.92,127.13 L34.71,132.12 Q34.51,137.11 33.53,141.97 L32.55,146.82 L31.37,157.77 L31.01,162.94 Q30.65,168.1 31.69,173.02 Q32.73,177.95 37.85,175.96 Q42.98,173.97 47.09,170.68 Q51.2,167.39 52.01,162.39 Q52.82,157.4 53.13,151.77 L53.44,146.14 L54.71,134.73 L55.64,129.29 Q56.56,123.85 56.57,118.75 Q56.58,113.65 55.85,108.69 Q55.13,103.72 53.05,99.15 Q50.96,94.58 49.31,89.55 Q47.66,84.52 42.53,85.04 L35.14,83.92 ZM118.01,124.09 Q117.29,119.12 112.85,120.91 Q108.41,122.7 106.01,128.42 Q103.61,134.14 102.37,139.27 L101.13,144.4 L98.08,154.77 L97.04,159.76 Q95.99,164.76 93.87,169.97 Q91.75,175.18 90.58,180.36 Q89.42,185.54 93.85,188.29 Q98.28,191.05 102.52,188.19 Q106.76,185.32 109.84,180.72 Q112.92,176.12 115,171.57 L117.08,167.03 L119.26,162.37 Q121.44,157.72 120.86,152.66 L120.28,147.61 L119.63,142.81 L117.43,129.45 L118.01,124.09 ZM88.83,9.29 L88.43,9.69 Q88.03,10.1 85.02,6.35 Q82,2.6 77.98,6.78 Q73.96,10.97 73.39,16.39 Q72.81,21.82 73.88,27.31 L74.95,32.81 L75.78,37.87 Q76.62,42.93 76.75,47.73 L76.89,52.54 L76.7,57.68 Q76.51,62.82 75.84,67.59 L75.16,72.36 L74.25,83.79 L72.59,94.76 L71.45,100.71 Q70.3,106.67 73.86,110.18 Q77.42,113.69 79.11,118.31 Q80.79,122.92 82.68,117.89 L84.58,112.85 L88.7,101.33 L92.73,91.48 L95.2,86.45 Q97.66,81.43 98.68,75.96 L99.69,70.5 L100.65,60.24 L101.36,54.81 Q102.07,49.39 101.97,44.36 L101.87,39.33 L102.18,34.12 Q102.49,28.9 100.63,23.8 Q98.77,18.7 96.58,14.16 L85.44,5.35M-113.02,-105.06 L-113.07,-105.17 Q-113.12,-105.28 -112.82,-99.59 Q-112.52,-93.89 -113.94,-87.92 Q-115.37,-81.95 -117.61,-76.39 L-119.86,-70.83 L-122.35,-65.69 Q-124.84,-60.54 -124.54,-55.76 Q-124.23,-50.99 -119.99,-53.43 Q-115.75,-55.88 -112.57,-60.68 Q-109.39,-65.47 -106.06,-68.99 Q-102.74,-72.52 -98.85,-75.38 Q-94.97,-78.23 -91.43,-81.8 Q-87.88,-85.36 -83.62,-87.96 Q-79.36,-90.55 -80.18,-95.26 L-87.51,-103.8M-15.24,-42.01 L-16.88,-36.75 Q-18.51,-31.48 -17.2,-26.72 Q-15.9,-21.95 -13.15,-16.93 L-10.41,-11.91 L-5.37,-0.73 L-1.96,8.65 L-0.13,14.18 Q1.7,19.7 0.53,25.57 Q-0.63,31.45 -2.03,36.1 Q-3.43,40.76 -2.78,46.04 Q-2.13,51.32 0.1,55.57 Q2.33,59.82 8.13,59.46 Q13.93,59.1 18.7,59.46 Q23.47,59.82 28.45,58.56 Q33.44,57.3 35.52,51.81 Q37.59,46.33 38.56,41.63 Q39.52,36.93 41.25,32.3 Q42.99,27.68 43.72,22.52 Q44.45,17.36 43.32,12.32 Q42.19,7.27 39.73,3.19 Q37.27,-0.89 35.44,-5.43 Q33.6,-9.96 34.05,-15.32 Q34.5,-20.68 32.08,-26.01 Q29.66,-31.33 26.29,-35.13 Q22.91,-38.92 18.87,-42.2 Q14.82,-45.47 9.87,-46.94 Q4.93,-48.4 -0.43,-49.87 C-8.99,-48.27 -13.93,-45.65 -15.24,-42.01 ZM-96.79,-56.02 L-97.22,-56.05 Q-97.66,-56.08 -101.57,-50.91 Q-105.48,-45.74 -107.29,-39.33 Q-109.09,-32.92 -108.94,-27.27 Q-108.78,-21.63 -106.83,-15.67 Q-104.87,-9.71 -102.37,-5.02 Q-99.87,-0.32 -100.18,5.82 Q-100.49,11.97 -101.74,18.92 L-102.98,25.86 L-104.22,32.06 Q-105.46,38.27 -101.13,41.06 Q-96.8,43.86 -93.68,40.01 L-90.57,36.16 L-87.16,32.33 Q-83.75,28.5 -78.58,27.47 Q-73.42,26.44 -67.86,24.38 Q-62.3,22.32 -58.97,17.97 Q-55.64,13.62 -54.1,8.86 L-52.56,4.09 L-51.05,-0.6 Q-49.55,-5.3 -49.6,-10.62 Q-49.66,-15.94 -50.42,-20.7 Q-51.19,-25.46 -53,-30.16 Q-54.81,-34.86 -58.33,-38.41 L-61.85,-41.95 L-65.45,-45.84 Q-69.05,-49.73 -72.1,-53.75 Q-75.15,-57.76 -80.16,-58.57 Q-85.16,-59.37 -89.87,-58.4 L-95.08,-56.83M-182.7,-94.77 C-183.6,-94.6 -203.2,-104.42 -210.45,-97.03 C-209.94,-93.77 -190.41,-50.98 -189.85,-47.07 L-185.67,0.82 C-185.11,6.63 -191.98,37.62 -195.81,52.68 L-197.78,62.16 C-203.38,93.89 -188.01,101.41 -179.15,76.23 L-177.48,71.5 C-173.46,61.91 -164.59,37.21 -162.22,29.63 C-160.31,23.68 -157.97,14.28 -157.28,11.06 C-156.78,7.95 -167.21,-36.11 -166.87,-42.37 L-166.62,-47.07 C-166.47,-63.78 -165.81,-90.69 -168.01,-92.59 C-171.59,-95.67 -179.17,-97.23 -184.15,-97.25 L-182.7,-94.77 ZM-269.49,-84.69 C-269.48,-83.5 -262.44,-62.04 -259.57,-54.66 C-258.13,-50.97 -247.89,-22.93 -247.08,-21.09 C-245.16,-16.7 -244.08,-2.52 -244.03,1.45 C-244,4.98 -242.04,22.31 -241.52,26.48 C-240.7,33.07 -236.84,46.95 -235.7,50.43 C-231.16,64.34 -209.57,46.93 -213.78,15.27 C-214.31,11.31 -212.62,-29.01 -212.79,-33.16 L-213.05,-39.4 C-215.19,-70.13 -227.34,-98.36 -247.61,-96.66 C-253.89,-96.13 -270.92,-90.97 -274.05,-89.87 L-269.49,-84.69 ZM-338.59,328.79 C-338.52,328.33 -334.96,321.2 -333.19,317.75 C-331.78,314.39 -334.55,297.42 -334.92,293.34 L-335.47,287.21 C-336.4,279.63 -339.55,253.5 -336.29,252.7 C-328.91,250.88 -311.12,277.06 -307.82,283.4 C-302.02,294.54 -283.83,290.76 -270.9,282.86 C-261.89,277.35 -273.19,256.64 -278.7,250.39 L-282.72,246.13 C-293.46,234.78 -290.38,207.47 -279.75,217.88 C-277.09,220.48 -263.04,238.23 -261.76,239.75 C-259.56,242.55 -253.33,248.56 -249.65,249.39 C-240.88,251.38 -225.81,225.47 -223.11,218.67 C-218.28,206.52 -231.85,190.92 -245.82,182.59 C-253.37,178.08 -280.6,177.58 -289.37,167.9 C-297.5,150.37 -269.13,144.08 -262.92,146.08 C-246.78,151.29 -222.15,160.22 -217.18,160.37 C-202.27,160.82 -208.91,187.34 -215.83,199.92 C-217.17,202.35 -222.35,217.65 -223.57,221.09 C-224.8,224.54 -229.05,233.04 -230.88,236.43 L-233.59,242.03 C-235.85,246.69 -260.37,270.83 -266.15,276.64 C-271.93,282.44 -285.4,306.24 -292.04,309.34 L-297.08,311.79 C-309.23,317.7 -323.66,321.66 -338.8,323.48M-600.33,184.85 C-602.12,181.76 -604.61,184.61 -600.56,186.58 C-596.52,188.55 -585.94,189.63 -577.25,191.1 C-568.57,192.57 -561.76,194.41 -553.8,193.33 C-545.83,192.25 -536.7,188.25 -529.78,189.56 C-522.85,190.87 -518.14,197.48 -522.11,205.35 C-526.08,213.21 -538.72,222.32 -548.54,227.72 C-558.37,233.12 -565.38,234.8 -572.79,234.84 C-580.2,234.88 -588.02,233.29 -586.58,241.18 C-585.13,249.06 -574.43,266.43 -564.78,271.83 C-555.13,277.23 -546.54,270.66 -538.16,264.77 C-529.78,258.88 -521.62,253.68 -517.68,248.2 C-513.74,242.71 -514.02,236.96 -508.6,233.3 C-503.17,229.64 -492.03,228.08 -486.09,231.67 C-480.15,235.25 -479.4,243.99 -481.12,251.74 C-482.85,259.5 -487.04,266.28 -493.14,272.85 C-499.25,279.43 -507.28,285.8 -517.47,289.68 C-527.67,293.56 -540.03,294.94 -536.49,301 C-532.96,307.07 -513.52,317.81 -501.61,315.5 C-489.69,313.19 -485.28,297.83 -478.91,286.66 C-472.53,275.48 -464.19,268.49 -459.96,260.24 C-455.73,252 -455.62,242.49 -451.45,243.37 C-447.27,244.26 -439.03,255.53 -438.93,265.76 C-438.83,275.99 -446.86,285.19 -452.95,290.96 C-459.04,296.73 -463.2,299.08 -462.77,304.69 C-462.34,310.3 -457.33,319.18 -473.94,320.41 C-490.55,321.63 -528.79,315.21 -552.78,294.86 C-576.78,274.51 -586.55,240.24 -591.98,218.59 C-597.42,196.95 -598.53,187.93 -600.33,184.85 Z" fill-rule="evenodd" style="fill:#FFFFAA;" />
					<path transform="matrix(0.8405282497406006, -0.025242231786251068, 0.025242231786251068, 0.8405282497406006, 737.795654296875, 508.69512939453125)" d="M-575.78,240.14 L-522.54,225.31 L-550.33,278.91 L-575.78,240.14 ZM-528.24,295.11 L-475.09,247.29 L-485.75,320.47 L-528.24,295.11 ZM-325.26,316.85 L-335.38,271.78 L-279.03,312.59 L-325.26,316.85 ZM-238.55,280.84 L-275.84,258.49 L-212.77,239.41 L-238.55,280.84 ZM-96.58,-99.91 L-103.28,202.57 L-28.16,-90.15 L-96.58,-99.91 ZM30.83,-71.44 L-20.11,150.8 L75.22,-41.92 L30.83,-71.44 ZM107.22,-7.61 L53.05,165.45 L128.24,35.96 L107.22,-7.61 ZM167.89,-370.89 L92.08,-373.26" fill-rule="evenodd" style="fill:#AAFFAA;" />
					<path d="M268.84,476.46 C256.24,489.28 217.52,529.6 246.42,694.54 C259.76,770.65 327.6,819.07 383.01,783.44 C389.35,779.36 411.28,752.02 411.28,752.02 C411.28,752.02 423.65,781.71 447.18,790.86 C470.27,799.83 504.23,788.5 536.08,764.79 C541.8,760.53 609.76,729.86 703.48,760.24 C718.17,765 820.28,753 832.73,727.57 C845.1,702.32 891.47,672.32 861.43,569.37 C840.27,496.84 783.48,453.17 726.07,437.81 C656.25,419.13 563.3,429.69 553.85,432.92 L268.84,476.46 Z L268.84,476.46 Z" fill-rule="evenodd" style="fill:none;stroke:#000000;stroke-linecap:round;stroke-linejoin:round;stroke-width:21.02;" />
					<path d="M517.62,775.61 C550.12,743.31 585.75,676.33 576.46,633.3M461.76,706.91 C433.76,706.8 416.33,722.54 409.48,754.15 C407.98,723.55 399.91,706.87 355.87,699.9" fill-rule="evenodd" style="fill:none;stroke:#000000;stroke-linecap:round;stroke-linejoin:round;stroke-width:21.02;" />
					<path d="M865.76,688.57 C817.84,737.29 725.78,661.71 706.11,705.88 C690.12,741.8 730.46,739.96 813.58,754.52 C889.18,767.76 898.34,670.31 873.5,658.14 L865.76,688.57 L865.76,688.57 Z" fill-rule="evenodd" style="fill:url(#gradient_2);stroke:#000000;stroke-linecap:round;stroke-linejoin:round;stroke-width:21.02;" />
					<path transform="matrix(0.7058506608009338, -0.04243362694978714, 0.04243362694978714, 0.7058506608009338, 747.2459716796875, 549.746826171875)" d="M147.74,205.07 L147.5,205.26 Q147.25,205.46 143.18,208.14 Q139.12,210.81 139.93,216.46 Q140.74,222.1 143.72,226.86 Q146.69,231.62 150.07,228.19 Q153.45,224.75 155.32,220.13 Q157.18,215.51 156.35,210.71 L151.64,197.24M115.92,227.76 L115.52,227.84 Q115.12,227.92 115.38,234.05 Q115.64,240.19 117.49,245.6 Q119.33,251.02 121.82,255.7 Q124.31,260.38 128.63,263.67 Q132.96,266.95 134.76,262.12 Q136.55,257.28 135.94,251.94 Q135.32,246.6 133,241.52 Q130.68,236.43 127.82,232.02 Q124.96,227.61 120.28,228.85 L115.05,230.77 L115.92,227.76 ZM82.56,231.38 L82.45,231.44 Q82.34,231.5 78.95,234.88 Q75.56,238.25 74.86,243.59 Q74.16,248.93 75.23,255.76 L76.3,262.58 L77.5,268.8 Q78.71,275.03 80.35,280.1 Q81.99,285.18 84.87,280.79 Q87.76,276.39 89.69,270.33 Q91.63,264.28 92.64,259.33 L93.64,254.37 L94.56,248.84 Q95.47,243.3 94.64,238.41 Q93.81,233.52 88.96,232.8 L83.4,232.52M36.08,220.51 L35.59,220.74 Q35.11,220.96 33.27,226.22 Q31.44,231.49 30.65,237.12 Q29.86,242.75 30.27,249.9 L30.68,257.04 L31.03,262.16 Q31.38,267.29 35.74,264.83 Q40.1,262.37 41.14,256.7 L42.18,251.03 L43.11,246.15 Q44.04,241.27 45.69,236.69 Q47.33,232.11 45.44,227.7 L42.37,222.07M-8.08,220.1 L-8.2,220.17 Q-8.33,220.25 -9.09,226.03 Q-9.86,231.8 -9.29,237.44 L-8.72,243.07 L-7.83,247.78 Q-6.94,252.48 -5.57,257.09 Q-4.21,261.69 -0.94,258.05 Q2.33,254.4 1.71,248.32 L1.09,242.24 L1.04,236.49 Q0.99,230.74 2.09,226.03 Q3.18,221.32 -0.49,218.17 L-8.6,217.01" fill-rule="evenodd" style="fill:#FFFFAA;" />
					<path transform="matrix(0.8405283093452454, -0.025242233648896217, 0.025242233648896217, 0.8405283093452454, 737.7955322265625, 508.6950988769531)" d="M-20.68,262.76 L3.56,218.82 L8.4,273.33 L-20.68,262.76 ZM34.05,279.66 L78.4,234.06 L69.56,285.46 L34.05,279.66 ZM101.71,289.77 L117.51,235.37 L139.16,282.96 L101.71,289.77 Z" fill-rule="evenodd" style="fill:#AAFFAA;" />
					<path d="M865.76,688.57 C817.84,737.29 725.78,661.71 706.11,705.88 C690.12,741.8 730.46,739.96 813.58,754.52 C889.18,767.76 898.34,670.31 873.5,658.14 L865.76,688.57 L865.76,688.57 Z" fill-rule="evenodd" style="fill:none;stroke:#000000;stroke-linecap:round;stroke-linejoin:round;stroke-width:21.02;" />
				</g>
				<g transform="matrix(1, 0, 0, 1, 19.21775245666504, 205.8759765625)">
					<path d="M522.64,198.3 C539.23,188.71 583.89,181.49 606.48,178.15 C627.71,175.01 662.5,176.11 669.72,190.21 C676.94,204.32 659.37,242.25 649.81,262.79 C640.94,281.83 621.99,302.38 612.34,313.47 C606.69,319.98 596.87,326.25 591.96,329.39M280.13,481.74 C262.82,472.49 216.47,442.49 209.25,422.9 C193.17,382.63 208.1,295 248.77,239.97 C270.63,210.4 294.09,180.61 339.77,173.1 C360.29,168.46 371.42,165.81 400.03,167.59 C460.62,165.33 511.35,178.48 551.71,235.27 C574.05,264.47 586.57,314.74 593.67,345.11 C599.15,368.62 601.48,398.57 594.27,417.52 C587.14,436.26 552.72,469.52 528.45,484.72 C489.67,510.3 433.4,524.73 409.96,523.43 C383.34,523.08 324.21,509.77 280.13,481.74 ZM278.02,204.9 C261.28,195.6 220.73,187.13 198.08,184.17 C160.03,179.92 135.74,185.24 130.03,196.88 C123.04,211.11 141.24,248.73 151.15,269.12 C165.76,299.2 200.53,318.7 210.46,324.81" fill-rule="evenodd" style="fill:url(#gradient_3);stroke:#000000;stroke-linecap:round;stroke-linejoin:round;stroke-width:21.02;" />
					<path transform="matrix(0.8405282497406006, -0.025242237374186516, 0.025242237374186516, 0.8405282497406006, 727.7315673828125, 314.05975341796875)" d="M-589.37,19.67 L-614.64,9.56 Q-557.75,29.26 -548.81,39.02 C-539.88,48.79 -509.59,26 -526.92,-2.09 C-544.25,-30.17 -553.21,-26.82 -570.65,-28.88 C-588.1,-30.93 -598.24,-57.64 -606.26,-53.59 Q-614.28,-49.54 -616.27,8.47 L-617.89,8.59 L-589.37,19.67 ZM-580.08,-88.22 L-577.7,-90.11 L-549.66,-72.17 L-530.03,-25.17 Q-512.49,-4.74 -502.55,-9.49 C-492.62,-14.24 -486.09,-40.38 -489.95,-58.05 C-493.81,-75.72 -504.66,-85.32 -517.97,-102.66 C-531.28,-120 -530.11,-144.29 -538.38,-140.26 L-580.08,-88.22 ZM-483.06,-171.42 L-481.86,-171.76 Q-467.79,-136.07 -464.29,-118.92 C-463.39,-114.5 -454.32,-98.34 -452.07,-93.78 C-447.51,-84.55 -443.92,-72.83 -445.81,-54.54 C-449.65,-17.35 -465.39,-4.13 -450.17,12.37 C-434.94,28.87 -430.32,-1.1 -433.02,-18.98 C-435.81,-37.48 -424.35,-73.37 -422.29,-108.45 C-420.38,-141.14 -427.91,-173.84 -428.92,-171.74 L-483.06,-171.42 ZM-403.68,-187.04 L-405.3,-187.57 L-402.11,-123.14 Q-404.55,-106.83 -399.6,-80.22 C-394.66,-53.6 -389.27,-51.73 -393.37,-21.4 C-397.47,8.93 -401.59,7.57 -395.34,31.04 C-389.09,54.51 -368.29,49.88 -369.89,15.58 C-371.5,-18.71 -366.58,-33.88 -373.22,-60.18 C-377.91,-78.77 -381.06,-131.59 -381.43,-151.33 C-381.8,-171.07 -372.45,-182.71 -372.92,-186.8 L-403.68,-187.04 ZM-329.9,-179.3 L-330.28,-179.13 L-349.89,-130.98 Q-353.68,-111.09 -352.27,-79.95 C-350.86,-48.81 -354.44,-64.47 -353.24,-30.81 C-352.04,2.84 -343.3,22.12 -335.67,27.71 C-328.05,33.29 -320.12,33.92 -322.51,2.92 C-324.89,-28.07 -325.51,-35.78 -323.74,-50.99 C-321.97,-66.19 -328.99,-73.03 -326.22,-96.96 C-323.45,-120.9 -331.15,-121.21 -319.49,-142.84 C-307.83,-164.47 -316,-158.81 -237.26,-151.15 L-329.9,-179.3 ZM-249.43,-131.1 Q-262.64,-95.56 -267.96,-85.62 C-273.27,-75.69 -284.34,-68.53 -285.28,-46.25 C-286.22,-23.98 -290.79,-5.32 -278.64,0.92 C-266.49,7.17 -268.34,10.49 -257.72,-6.02 C-247.11,-22.54 -253.72,-14.98 -245.17,-42.82 C-236.63,-70.67 -225.58,-80.9 -217.56,-96.61 C-212.03,-107.45 -228.55,-112.26 -249.43,-131.1 ZM-179.95,-18.11 Q-200.84,-6.33 -217.74,8.53 C-234.65,23.4 -240.81,32.57 -234.49,39.15 C-228.18,45.73 -216.22,47.8 -201.61,40.73 C-187.01,33.66 -182.09,25.3 -178.1,19.44 C-174.11,13.58 -171.74,5.05 -168.73,1.3 L-179.95,-18.11 ZM-622.2,110.24 L-621.19,111.63 Q-601.83,103.59 -581.29,105.86 C-560.74,108.12 -548.15,100.43 -533.88,111.79 C-519.61,123.15 -509.5,131.84 -523.05,140.63 C-536.6,149.42 -562.56,144.77 -568.94,150.32 C-575.33,155.88 -609.18,141.96 -613.1,137.81 L-622.2,110.24 ZM-175.44,134.44 L-175.51,134.11 Q-193.62,121.86 -210.61,113.4 C-227.59,104.95 -244.99,87.87 -262.42,100.28 C-274.04,108.55 -254.26,129.97 -243.81,137.65 C-233.36,145.33 -201.49,154.11 -194.49,161.89 Q-187.48,169.66 -206.51,174.74 L-175.44,134.44 ZM-522.98,189.15 Q-503.86,166.48 -494.3,163.93 C-484.75,161.38 -456.09,149.01 -462.05,166.98 C-468.01,184.95 -467.7,196.15 -471.39,205.12 L-522.98,189.15 ZM-304.42,214.68 Q-313.42,191.72 -312.88,183.26 C-312.34,174.8 -317.13,155 -314.02,147.55 C-310.91,140.11 -291.23,148.4 -282.15,152.25 C-273.08,156.11 -267.5,175.84 -262.59,185 C-257.67,194.15 -259.97,214.48 -268.43,217.23 L-304.42,214.68 ZM-192.98,-97.47 Z" fill-rule="evenodd" style="fill:#FFFFAA;" />
					<path transform="matrix(0.8405282497406006, -0.025242237374186516, 0.025242237374186516, 0.8405282497406006, 574.7078247070312, 296.82196044921875)" d="M-291.74,-144.14 L-248.64,-0.46 L-246.88,-150.87 L-215.25,-160.61 L-204.08,19.03 L-174.67,-161.16 L-150.74,-163.01 L-159.36,15.57 L-110.52,-149.24 L-144.09,-163.53 L-234.07,-170.12 L-291.74,-144.14 ZM12.09,59.52 L-29.71,77.08 L21.74,88.25 L20.07,109.95 L-70.07,131.86 L19.77,137.27 L0.18,170.6 L-67.29,175.93 L-23.95,195.46 L23.39,158.63 L28.91,101.02 L12.09,59.52 ZM-426.12,5.33 L-381.89,40.11 L-430.93,42.46 L-436.89,72.17 L-377.85,80.19 L-435.62,101.77 L-431.66,123.22 L-355.7,124.82 L-423.2,160.97 L-444.86,108.5 L-442.31,50.29 L-426.12,5.33 Z" fill-rule="evenodd" style="fill:#AAFFAA;" />
					<path d="M606.48,178.15 C627.71,175.01 662.5,176.11 669.72,190.21 C676.94,204.32 659.37,242.25 649.81,262.79 C640.94,281.83 621.99,302.38 612.34,313.47 C606.69,319.98 596.87,326.25 591.96,329.39M522.64,198.3 C539.23,188.71 583.89,181.49 606.48,178.15 C627.71,175.01 662.5,176.11 669.72,190.21 C676.94,204.32 659.37,242.25 649.81,262.79 C640.94,281.83 621.99,302.38 612.34,313.47 C606.69,319.98 596.87,326.25 591.96,329.39M280.13,481.74 C262.82,472.49 216.47,442.49 209.25,422.9 C193.17,382.63 208.1,295 248.77,239.97 C270.63,210.4 294.09,180.61 339.77,173.1 C360.29,168.46 371.42,165.81 400.03,167.59 C460.62,165.33 511.35,178.48 551.71,235.27 C574.05,264.47 586.57,314.74 593.67,345.11 C599.15,368.62 601.48,398.57 594.27,417.52 C587.14,436.26 552.72,469.52 528.45,484.72 C489.67,510.3 433.4,524.73 409.96,523.43 C383.34,523.08 324.21,509.77 280.13,481.74 ZM278.02,204.9 C261.28,195.6 220.73,187.13 198.08,184.17 C160.03,179.92 135.74,185.24 130.03,196.88 C123.04,211.11 141.24,248.73 151.15,269.12 C165.76,299.2 200.53,318.7 210.46,324.81" fill-rule="evenodd" style="fill:none;stroke:#000000;stroke-linecap:round;stroke-linejoin:round;stroke-width:21.02;" />
					<path transform="matrix(0.9975706338882446, 0.06965983659029007, -0.06965983659029007, 0.9975706338882446, 39.11552810668945, -26.4062557220459)" d="M377.84,394.54 C380.95,400.15 384.75,404.24 396.36,407.04 C403.78,402.65 406.93,399.17 410.9,390.59M363.56,451.87 C367.69,458.41 377.42,459.07 384.33,457.93 C397.19,455.79 398.75,447.81 399.9,433.65 L397.22,410.55M399.91,433.94 C401.15,445.68 411.04,453.21 419.82,454.48 C427.34,454.18 433.29,451.39 437.68,446.08M270.17,382.95 C274.17,388.87 302.43,395.77 321.61,382.52M462.43,366.16 C466.26,368.07 488.82,379.31 515.39,360.96" fill-rule="evenodd" style="fill:none;stroke:#000000;stroke-linecap:round;stroke-linejoin:round;stroke-width:13.45;" />
				</g>
			</g>
		</g>
	</g>
</svg>